<svg xmlns="http://www.w3.org/2000/svg" xmlns:xlink="http://www.w3.org/1999/xlink" width="41.827" height="103.585" viewBox="0 0 41.827 103.585">
  <defs>
    <clipPath id="clip-path">
      <rect id="Rectangle_434" data-name="Rectangle 434" width="41.827" height="103.585" fill="none"/>
    </clipPath>
    <clipPath id="clip-path-2">
      <rect id="Rectangle_429" data-name="Rectangle 429" width="19.948" height="21.967" fill="none"/>
    </clipPath>
    <clipPath id="clip-path-3">
      <rect id="Rectangle_430" data-name="Rectangle 430" width="15.247" height="12.49" fill="none"/>
    </clipPath>
    <clipPath id="clip-path-4">
      <rect id="Rectangle_431" data-name="Rectangle 431" width="4.968" height="7.728" fill="none"/>
    </clipPath>
    <clipPath id="clip-path-5">
      <rect id="Rectangle_432" data-name="Rectangle 432" width="11.375" height="2.385" fill="none"/>
    </clipPath>
    <clipPath id="clip-path-6">
      <rect id="Rectangle_433" data-name="Rectangle 433" width="3.453" height="7.908" fill="none"/>
    </clipPath>
  </defs>
  <g id="Group_355" data-name="Group 355" transform="translate(0 0)">
    <g id="Group_356" data-name="Group 356" transform="translate(0 0)">
      <g id="Group_353" data-name="Group 353">
        <g id="Group_352" data-name="Group 352" clip-path="url(#clip-path)">
          <path id="Path_787" data-name="Path 787" d="M40.927,22.1a6.463,6.463,0,0,0,.9-1.827q-.054-1.617-.106-3.232-.027-.835-.053-1.669c-.256-1.58-.171-3.3-.716-4.636-.316-.775-1.629-.968-2.33-1.377C36.609,8.181,34.444,6.9,31.075,7.475l-2.436.239a7.11,7.11,0,0,1-1.906.105c-.523-.078-1.176.054-1.537-.185a3.559,3.559,0,0,1-.847-1.166C23.767,5.491,23.2,4.4,22.68,3.37l-.637-1.351a2.643,2.643,0,0,0-1.059-.688,6.081,6.081,0,0,0-2.146-.5c-1.046.17-1.641.531-2.754.716a18.4,18.4,0,0,0-2.172.159A3.74,3.74,0,0,1,13.437.323,8.86,8.86,0,0,0,10.285.006C10.065.141,9.83,0,9.57.165,9.078.493,9.345,3.456,9.331,4.3A12.6,12.6,0,0,1,8.8,6.866a7.2,7.2,0,0,0,.741,3.815c.512,1.012,2.852,1.424,2.755,2.809-.142,2.027-2.785,2.678-3.814,3.947A21.989,21.989,0,0,0,5.465,23.5c-.324.832-1.338,3.2-.821,4.265.335.693,1.9,1.356,2.6,1.776a25.335,25.335,0,0,0,5.032,2.463,26.8,26.8,0,0,0,2.834.266,13.248,13.248,0,0,1,3.257.9c1.429.667,1.667,1.882,1.96,3.629.132.785-.272,1.556-.107,2.3a18.13,18.13,0,0,0,1.272,2.809,9.355,9.355,0,0,1,.158,4.239,10.066,10.066,0,0,1-1.218,4.106c-2.094,2.87-6.533,3.257-9.667,5.086a30.647,30.647,0,0,0-3.389,2.2A21.985,21.985,0,0,0,3.717,61.49C2.667,62.827,1.734,64.235.778,65.7c-.282.433-.936,1.163-.742,1.986.165.7,2.641,2.587,3.257,3.206L5.2,73.146a3.17,3.17,0,0,0,.662.742c.479.311,1.066.428,1.537.716,1.243.759,2.423,1.61,3.707,2.357l2.886,1.325a12.529,12.529,0,0,1,4.265,4.688,9.2,9.2,0,0,1,.424,2.014c.428.284,1.268.224,1.8.4,2.333.759,7.251,1.023,9.746.212.5-.162,1.916-.063,2.172-.4.1-.317-.533-1.216-.689-1.458l-2.251-3.868c-1.344-3.057-1.181-7.864-.185-11.206a12.917,12.917,0,0,1,1.589-3.787c.513-.723,1.7-1.618,1.907-2.544a5.721,5.721,0,0,0-1.192-4.027c-.576-.427-1.65-.3-1.827-1.112a25.2,25.2,0,0,1,.714-2.6q.054-.874.107-1.748a54.39,54.39,0,0,1,.98-6.04,5.859,5.859,0,0,1,1.721-2.676c.452-.353,1.347-.68,1.589-1.218a5.69,5.69,0,0,0,.133-1.06,15.033,15.033,0,0,1,.45-2.517c.533-1.309,1.845-2.24,2.172-3.5q.025-.635.053-1.271c.2-1.248-.026-2.517.4-3.577a7.946,7.946,0,0,1,1.245-2.119c.4-.5,1.116-.795,1.351-1.456.191-.543-.141-1.246-.238-1.722a5.443,5.443,0,0,1,.053-2.252l.45-1.351m-6.276-5.43a2.084,2.084,0,0,1-.371.716c-.79,1.183-1.929-.348-3.124-.159a3.459,3.459,0,0,0-2.013,1.192,23.05,23.05,0,0,0-2.41,3.841q-.293.6-.583,1.192c-.208.965,1.855,1.884,1.033,3.126A1.735,1.735,0,0,1,25.2,27c-.6-.258-.925-.844-1.456-1.166a10.29,10.29,0,0,0-5.165-.795c-.852.164-1.441.749-2.3.927a8.687,8.687,0,0,1-3.947-.45,1.251,1.251,0,0,1-.212-1.907c.652-.813,1.929-1.114,2.543-1.96.325-.45-.084-1.24.079-1.828.258-.935,1.107-1.5,1.43-2.331l.212-1.668q.266-.994.53-1.988A7.2,7.2,0,0,1,17.727,11c.527-.655,1.9-.158,2.886-.318a5.024,5.024,0,0,0,1.245-.292c.822.012,1.247.528,1.8.822a17.146,17.146,0,0,1,2.7,1.854,7.768,7.768,0,0,0,1.986,1.458c.913.351,1.4-.67,2.41-.477.628.121.889.583,1.218,1.008.567.732,3,.055,2.675,1.615" transform="translate(0 0.001)" fill="#be8d3c"/>
          <path id="Path_788" data-name="Path 788" d="M34.608,89.6H3.325a1.662,1.662,0,0,1-1.662-1.662V72.755a1.661,1.661,0,0,1,1.662-1.661H34.608a1.661,1.661,0,0,1,1.662,1.661V87.942A1.662,1.662,0,0,1,34.608,89.6" transform="translate(0.327 13.982)" fill="#be8d3c"/>
          <g id="Group_339" data-name="Group 339" transform="translate(6.833 46.524)" opacity="0.5">
            <g id="Group_338" data-name="Group 338">
              <g id="Group_337" data-name="Group 337" clip-path="url(#clip-path-2)">
                <path id="Path_789" data-name="Path 789" d="M25.657,38.878c-3.19,5.057-.329,13.589-8.806,13.294-2.167-.086-3.73-.083-5.283,1.2C9.616,54.85,7.613,56.766,7.014,59.16a2.231,2.231,0,0,0,.592,1.685A2.821,2.821,0,0,1,6.545,60.4c-2.682-2.6,1.771-7.036,3.807-8.648,1.787-1.633,4.308-1.782,6.547-1.571,3.06.22,4.308-.623,5.208-3.722.832-2.6,1.6-5.539,3.55-7.578" transform="translate(-5.71 -38.878)" fill="#fff"/>
              </g>
            </g>
          </g>
          <g id="Group_342" data-name="Group 342" transform="translate(20.981 22.898)" opacity="0.5">
            <g id="Group_341" data-name="Group 341">
              <g id="Group_340" data-name="Group 340" clip-path="url(#clip-path-3)">
                <path id="Path_790" data-name="Path 790" d="M32.756,19.135C33,21.241,31.3,23,30.143,24.516c-.237.461-.46,1.016-.706,1.478-.145.278-.473.869-.954.984-3.921,1.333-11-1.778-10.722,4.648a6.61,6.61,0,0,1-.226-1.413c-.164-5.416,7.637-3.652,10.471-4.493.431-.521.68-1.436,1.125-2.022,1.34-1.527,2.975-2.554,3.625-4.562" transform="translate(-17.533 -19.135)" fill="#fff"/>
              </g>
            </g>
          </g>
          <g id="Group_345" data-name="Group 345" transform="translate(8.681 15.778)" opacity="0.5">
            <g id="Group_344" data-name="Group 344">
              <g id="Group_343" data-name="Group 343" clip-path="url(#clip-path-4)">
                <path id="Path_791" data-name="Path 791" d="M12.222,13.185a6.222,6.222,0,0,1-2.26,4.3A10.16,10.16,0,0,0,8.379,18.87c-.372.434-.438,1.369-.968,2.043a6.005,6.005,0,0,1,0-2.525,5.109,5.109,0,0,1,1.659-1.954,31.492,31.492,0,0,0,3.158-3.249" transform="translate(-7.254 -13.184)" fill="#fff"/>
              </g>
            </g>
          </g>
          <g id="Group_348" data-name="Group 348" transform="translate(25.339 9.02)" opacity="0.5">
            <g id="Group_347" data-name="Group 347">
              <g id="Group_346" data-name="Group 346" clip-path="url(#clip-path-5)">
                <path id="Path_792" data-name="Path 792" d="M32.549,8.776c-1.484.182-2.794-.12-4.149.2a11.529,11.529,0,0,1-2.794.914c-1.578.207-2.945-.619-4.432-.842A10.051,10.051,0,0,1,24.1,8.908a5.548,5.548,0,0,0,2.529-.6,5.084,5.084,0,0,1,1.447-.67,5.922,5.922,0,0,1,4.472,1.142" transform="translate(-21.175 -7.537)" fill="#fff"/>
              </g>
            </g>
          </g>
          <g id="Group_351" data-name="Group 351" transform="translate(27.562 34.957)" opacity="0.5">
            <g id="Group_350" data-name="Group 350">
              <g id="Group_349" data-name="Group 349" clip-path="url(#clip-path-6)">
                <path id="Path_793" data-name="Path 793" d="M25.7,29.212c1.668,2.661.616,7.127-2.671,7.908,1.884-2.389,2.243-4.891,2.671-7.908" transform="translate(-23.033 -29.212)" fill="#fff"/>
              </g>
            </g>
          </g>
        </g>
      </g>
    </g>
  </g>
</svg>
