<svg id="Group_173" data-name="Group 173" xmlns="http://www.w3.org/2000/svg" xmlns:xlink="http://www.w3.org/1999/xlink" width="373.257" height="200" viewBox="0 0 373.257 200">
  <defs>
    <clipPath id="clip-path">
      <rect id="Rectangle_308" data-name="Rectangle 308" width="373.257" height="200" fill="none"/>
    </clipPath>
  </defs>
  <rect id="Rectangle_307" data-name="Rectangle 307" width="120.633" height="2" transform="translate(2.492 158.436)" fill="#cf8d3b"/>
  <path id="Path_349" data-name="Path 349" d="M10.845,0V5.635H3.663V0H2.493V12.816h1.17V6.7h7.182v6.12h1.17V0Z" transform="translate(2 3)" fill="#fff"/>
  <g id="Group_174" data-name="Group 174">
    <g id="Group_173-2" data-name="Group 173" clip-path="url(#clip-path)">
      <path id="Path_350" data-name="Path 350" d="M21.458,4.532a4.35,4.35,0,0,1,1.128,3.26V12.28a13.873,13.873,0,0,0,.246,2.791h-1.3a8.565,8.565,0,0,1-.156-1.718h-.045a4.318,4.318,0,0,1-4.042,1.941,4.1,4.1,0,0,1-2.78-.914,2.958,2.958,0,0,1-1.061-2.346,2.832,2.832,0,0,1,.971-2.278,7,7,0,0,1,3.338-1.206q1.628-.268,3.483-.4V7.615a2.965,2.965,0,0,0-.782-2.256,2.972,2.972,0,0,0-2.121-.737A3.1,3.1,0,0,0,16.2,5.3a2.567,2.567,0,0,0-.826,1.843H13.922a3.782,3.782,0,0,1,1.262-2.679,4.574,4.574,0,0,1,3.16-1.028,4.284,4.284,0,0,1,3.115,1.094m-3.517,5.18a5.3,5.3,0,0,0-2.345.759,1.748,1.748,0,0,0-.67,1.475,1.976,1.976,0,0,0,.7,1.6,2.945,2.945,0,0,0,1.954.592,4.116,4.116,0,0,0,1.463-.257,3.023,3.023,0,0,0,1.15-.748,3.579,3.579,0,0,0,.826-1.239,5.17,5.17,0,0,0,.223-1.708v-.87q-1.451.11-3.3.4" transform="translate(3.235 0.827)" fill="#fff"/>
      <path id="Path_351" data-name="Path 351" d="M31.629,18.587V15.015H30.155V13.474H30.11a3.606,3.606,0,0,1-1.44,1.306,4.471,4.471,0,0,1-2.088.48,3.782,3.782,0,0,1-3-1.183,5.174,5.174,0,0,1-1.038-3.506v-6.9h1.384V10.5a4.049,4.049,0,0,0,.737,2.735,2.771,2.771,0,0,0,2.166.815,3.331,3.331,0,0,0,1.652-.424,3.055,3.055,0,0,0,1.206-1.25,4.117,4.117,0,0,0,.447-1.986V3.673h1.384V13.855h1.5v4.732Z" transform="translate(5.421 0.883)" fill="#fff"/>
      <path id="Path_352" data-name="Path 352" d="M32.77,14.077a5.176,5.176,0,0,1-1.038-3.506v-6.9h1.384V10.5a4.051,4.051,0,0,0,.737,2.735,2.771,2.771,0,0,0,2.166.814,3.333,3.333,0,0,0,1.652-.423,3.063,3.063,0,0,0,1.206-1.25,4.125,4.125,0,0,0,.447-1.987V3.672h1.384V15.015H39.346V13.474H39.3a3.594,3.594,0,0,1-1.44,1.305,4.464,4.464,0,0,1-2.088.481,3.782,3.782,0,0,1-3-1.183" transform="translate(7.631 0.883)" fill="#fff"/>
      <path id="Path_353" data-name="Path 353" d="M49.34,5.035A6.439,6.439,0,0,1,50.725,9.4a6.439,6.439,0,0,1-1.384,4.365,4.762,4.762,0,0,1-3.8,1.6,4.762,4.762,0,0,1-3.8-1.6A6.433,6.433,0,0,1,40.364,9.4a6.433,6.433,0,0,1,1.384-4.365,4.762,4.762,0,0,1,3.8-1.6,4.762,4.762,0,0,1,3.8,1.6m-6.531.882A5.522,5.522,0,0,0,41.815,9.4a5.522,5.522,0,0,0,.994,3.483,3.6,3.6,0,0,0,5.493,0A5.53,5.53,0,0,0,49.3,9.4,5.53,5.53,0,0,0,48.3,5.917a3.6,3.6,0,0,0-5.493,0" transform="translate(9.707 0.827)" fill="#fff"/>
      <path id="Path_354" data-name="Path 354" d="M57.854,15.015V9.924H51.468v5.091H50.084V3.672h1.384V8.763h6.386V3.672h1.384V15.015Z" transform="translate(12.045 0.883)" fill="#fff"/>
      <path id="Path_355" data-name="Path 355" d="M66.776,4.532A4.35,4.35,0,0,1,67.9,7.792V12.28a13.873,13.873,0,0,0,.246,2.791h-1.3a8.565,8.565,0,0,1-.156-1.718h-.045a4.318,4.318,0,0,1-4.042,1.941,4.1,4.1,0,0,1-2.78-.914,2.958,2.958,0,0,1-1.061-2.346,2.832,2.832,0,0,1,.971-2.278A7,7,0,0,1,63.08,8.551q1.628-.268,3.483-.4V7.615a2.965,2.965,0,0,0-.782-2.256,2.972,2.972,0,0,0-2.121-.737,3.1,3.1,0,0,0-2.144.681,2.567,2.567,0,0,0-.826,1.843H59.24A3.782,3.782,0,0,1,60.5,4.466a4.574,4.574,0,0,1,3.16-1.028,4.284,4.284,0,0,1,3.115,1.094m-3.517,5.18a5.3,5.3,0,0,0-2.345.759,1.748,1.748,0,0,0-.67,1.475,1.976,1.976,0,0,0,.7,1.6,2.945,2.945,0,0,0,1.954.592,4.116,4.116,0,0,0,1.463-.257,3.023,3.023,0,0,0,1.15-.748,3.579,3.579,0,0,0,.826-1.239,5.17,5.17,0,0,0,.223-1.708v-.87q-1.451.11-3.3.4" transform="translate(14.134 0.827)" fill="#fff"/>
      <path id="Path_356" data-name="Path 356" d="M72.982,3.673l4.242,11.343h-1.5L73.942,10.1,72.111,5.011h-.045L70.235,10.1l-1.786,4.912h-1.5L71.2,3.673Z" transform="translate(16.102 0.883)" fill="#fff"/>
      <path id="Path_357" data-name="Path 357" d="M82.491,13.5a3.149,3.149,0,0,0,1.139-1.8h1.429a4.384,4.384,0,0,1-1.53,2.612,4.893,4.893,0,0,1-3.271,1.049,4.674,4.674,0,0,1-3.8-1.664,6.809,6.809,0,0,1-1.384-4.5,6.932,6.932,0,0,1,.614-2.981,4.78,4.78,0,0,1,1.764-2.043,4.916,4.916,0,0,1,2.713-.737,4.71,4.71,0,0,1,3.16,1.072A5.058,5.058,0,0,1,84.97,7.48a10.56,10.56,0,0,1,.179,2.188H76.485a4.985,4.985,0,0,0,1.094,3.349,3.451,3.451,0,0,0,2.679,1.161,3.517,3.517,0,0,0,2.233-.68M77.6,5.671a4.283,4.283,0,0,0-1.094,2.858h7.3a4.4,4.4,0,0,0-1.094-2.88,3.667,3.667,0,0,0-5.113.022" transform="translate(18.056 0.827)" fill="#fff"/>
      <path id="Path_358" data-name="Path 358" d="M92.334,15.015V9.924H85.948v5.091H84.564V3.672h1.384V8.763h6.386V3.672h1.384V15.015Z" transform="translate(20.337 0.883)" fill="#fff"/>
      <path id="Path_359" data-name="Path 359" d="M104.71,15.9l-5.649-5.85h-.045V15.9H97.632V0h1.384V9.311h.045l5.046-4.756h1.876L100.49,9.646l6.14,6.252Z" transform="translate(23.48 0)" fill="#fff"/>
      <path id="Path_360" data-name="Path 360" d="M113.379,5.035A6.439,6.439,0,0,1,114.764,9.4a6.439,6.439,0,0,1-1.384,4.365,5.311,5.311,0,0,1-7.592,0A6.433,6.433,0,0,1,104.4,9.4a6.433,6.433,0,0,1,1.384-4.365,5.311,5.311,0,0,1,7.592,0m-6.531.882a5.522,5.522,0,0,0-.994,3.483,5.522,5.522,0,0,0,.994,3.483,3.6,3.6,0,0,0,5.493,0,5.53,5.53,0,0,0,.994-3.483,5.53,5.53,0,0,0-.994-3.483,3.6,3.6,0,0,0-5.493,0" transform="translate(25.108 0.827)" fill="#fff"/>
      <path id="Path_361" data-name="Path 361" d="M121.893,15.015V9.924h-6.386v5.091h-1.384V3.672h1.384V8.763h6.386V3.672h1.384V15.015Z" transform="translate(27.446 0.883)" fill="#fff"/>
      <path id="Path_362" data-name="Path 362" d="M130.2,15.9l-5.649-5.85h-.045V15.9h-1.384V0h1.384V9.311h.045L129.6,4.555h1.876l-5.493,5.091,6.14,6.252Z" transform="translate(29.611 0)" fill="#fff"/>
      <path id="Path_363" data-name="Path 363" d="M134.936,17.828a3.246,3.246,0,0,1-1.317,1.1,4.836,4.836,0,0,1-1.876.313,3.252,3.252,0,0,1-.826-.091V17.918a3.148,3.148,0,0,0,.8.091,3.316,3.316,0,0,0,1.362-.236,2.148,2.148,0,0,0,.9-.858,11.826,11.826,0,0,0,.882-1.9L130.4,3.673h1.5l3.684,9.579h.045l3.684-9.579h1.5l-4.689,11.878a10.511,10.511,0,0,1-1.183,2.278" transform="translate(31.361 0.883)" fill="#fff"/>
      <path id="Path_364" data-name="Path 364" d="M147.092,4.165a4.607,4.607,0,0,1,1.664,2.077,7.891,7.891,0,0,1,.581,3.137,7.891,7.891,0,0,1-.581,3.137,4.614,4.614,0,0,1-1.664,2.077,4.445,4.445,0,0,1-2.534.726,4.368,4.368,0,0,1-2.166-.537,3.34,3.34,0,0,1-1.407-1.428h-.045V19.2h-1.384V3.729h1.384V5.4h.045a3.338,3.338,0,0,1,1.407-1.43,4.367,4.367,0,0,1,2.166-.535,4.445,4.445,0,0,1,2.534.726m-5.281,1.742a5.831,5.831,0,0,0-.938,3.472,5.831,5.831,0,0,0,.938,3.472,2.95,2.95,0,0,0,2.523,1.305,3.055,3.055,0,0,0,2.59-1.3,5.715,5.715,0,0,0,.96-3.482,5.727,5.727,0,0,0-.96-3.485,3.061,3.061,0,0,0-2.59-1.3,2.952,2.952,0,0,0-2.523,1.307" transform="translate(33.562 0.827)" fill="#fff"/>
      <path id="Path_365" data-name="Path 365" d="M156.6,4.6a4.468,4.468,0,0,1,1.418,3.037h-1.451a3.26,3.26,0,0,0-.982-2.155,3.008,3.008,0,0,0-2.166-.837,3.172,3.172,0,0,0-2.668,1.273A5.616,5.616,0,0,0,149.78,9.4a5.6,5.6,0,0,0,.971,3.494,3.183,3.183,0,0,0,2.668,1.262,2.9,2.9,0,0,0,2.155-.9,3.508,3.508,0,0,0,.994-2.222h1.451a5.128,5.128,0,0,1-.7,2.211,4.335,4.335,0,0,1-1.6,1.552,4.6,4.6,0,0,1-2.3.569,4.706,4.706,0,0,1-3.762-1.6A6.479,6.479,0,0,1,148.284,9.4a6.473,6.473,0,0,1,1.373-4.364,4.7,4.7,0,0,1,3.762-1.6A4.523,4.523,0,0,1,156.6,4.6" transform="translate(35.662 0.827)" fill="#fff"/>
      <path id="Path_366" data-name="Path 366" d="M5.81,147.657v3.318H9.127a6.073,6.073,0,0,1,4.177,1.343,5.205,5.205,0,0,1,.011,7.325,6.094,6.094,0,0,1-4.188,1.332H2.492V144.9H13.8v2.753Zm0,10.565H8.472q2.936,0,2.935-2.235a2.009,2.009,0,0,0-.734-1.681,3.519,3.519,0,0,0-2.2-.576H5.81Z" transform="translate(0.599 34.849)" fill="#be8d3c"/>
      <path id="Path_367" data-name="Path 367" d="M18.238,152.59a2.817,2.817,0,0,1,1.174-.915,4.224,4.224,0,0,1,1.716-.326,4.842,4.842,0,0,1,3.431,1.195,4.708,4.708,0,0,1-.181,6.649,5.881,5.881,0,0,1-3.95,1.253,6.5,6.5,0,0,1-2.844-.587,4.359,4.359,0,0,1-1.884-1.683,4.78,4.78,0,0,1-.666-2.538v-4.673H12.075v-2.348h6.118v3.975Zm.474,1.681a2.205,2.205,0,0,0-.587,1.614,2.236,2.236,0,0,0,.587,1.636,2.115,2.115,0,0,0,1.58.6,2.243,2.243,0,0,0,1.659-.6,2.207,2.207,0,0,0,.6-1.636,2.171,2.171,0,0,0-.6-1.625,2.267,2.267,0,0,0-1.659-.587,2.114,2.114,0,0,0-1.58.6" transform="translate(2.904 35.741)" fill="#be8d3c"/>
      <path id="Path_368" data-name="Path 368" d="M30.88,148.616l3.86,11.467h-3.3l-1.332-4.515q-.744-2.527-1.264-4.964H28.8q-.519,2.438-1.264,4.964l-1.332,4.515H22.912l3.859-11.467Z" transform="translate(5.51 35.741)" fill="#be8d3c"/>
      <path id="Path_369" data-name="Path 369" d="M40.01,148.764a3.9,3.9,0,0,1,1.671,1.231,2.917,2.917,0,0,1,.6,1.806,2.879,2.879,0,0,1-.553,1.873,3.156,3.156,0,0,1-1.3.97,19.862,19.862,0,0,1-2.121.656q-1.061.27-1.579.45a1.891,1.891,0,0,0-.791.475,1.12,1.12,0,0,0-.27.789.95.95,0,0,0,.429.835,2.188,2.188,0,0,0,1.242.3,2.067,2.067,0,0,0,1.489-.5,1.84,1.84,0,0,0,.52-1.4h3.205a3.826,3.826,0,0,1-1.355,3.194,5.962,5.962,0,0,1-3.792,1.073,6.253,6.253,0,0,1-3.69-.971,3.259,3.259,0,0,1-.768-4.536,3.5,3.5,0,0,1,1.423-1.049,18.653,18.653,0,0,1,2.269-.688,8.719,8.719,0,0,0,1.953-.666.972.972,0,0,0,.53-.892.919.919,0,0,0-.406-.8,2,2,0,0,0-1.152-.282q-1.8,0-1.8,1.716H32.729a3.641,3.641,0,0,1,1.264-2.981,5.446,5.446,0,0,1,3.544-1.037,6.485,6.485,0,0,1,2.472.439" transform="translate(7.779 35.671)" fill="#be8d3c"/>
      <path id="Path_370" data-name="Path 370" d="M50.164,149.465a4.386,4.386,0,0,1,1.24,3.4v4.154a12.655,12.655,0,0,0,.316,3.137H48.878a6.526,6.526,0,0,1-.159-1.534h-.045a4.257,4.257,0,0,1-3.725,1.806,4.029,4.029,0,0,1-2.844-.982,3.252,3.252,0,0,1-1.061-2.495,3,3,0,0,1,1.028-2.369,6.877,6.877,0,0,1,3.419-1.288q1.444-.225,2.867-.315v-.407a2.094,2.094,0,0,0-.5-1.536,1.866,1.866,0,0,0-1.377-.5,1.9,1.9,0,0,0-1.366.463,1.827,1.827,0,0,0-.531,1.275H41.519a3.892,3.892,0,0,1,1.355-2.844,5.323,5.323,0,0,1,3.611-1.105,5.273,5.273,0,0,1,3.679,1.14m-4.109,5.677a3.116,3.116,0,0,0-1.422.542,1.279,1.279,0,0,0-.429,1.038,1.339,1.339,0,0,0,.44,1.049,1.807,1.807,0,0,0,1.253.394,3.034,3.034,0,0,0,1-.167,2.116,2.116,0,0,0,.8-.486,1.963,1.963,0,0,0,.519-.868,5.105,5.105,0,0,0,.135-1.321v-.429q-1.355.091-2.3.248" transform="translate(9.871 35.671)" fill="#be8d3c"/>
      <path id="Path_371" data-name="Path 371" d="M59.818,149.125a4.769,4.769,0,0,1,1.67,2.11,7.964,7.964,0,0,1,.588,3.172,8.116,8.116,0,0,1-.576,3.171,4.735,4.735,0,0,1-1.649,2.111,4.263,4.263,0,0,1-2.495.744,4.073,4.073,0,0,1-1.862-.439,3.549,3.549,0,0,1-1.388-1.232h-.045v5.554H50.9V148.673h3.07v1.512h.045a3.619,3.619,0,0,1,1.4-1.332,3.939,3.939,0,0,1,1.9-.474,4.31,4.31,0,0,1,2.506.746m-5.26,2.63a5.707,5.707,0,0,0,0,5.3,2.011,2.011,0,0,0,1.738.959,2.1,2.1,0,0,0,1.806-.981,5.444,5.444,0,0,0,0-5.26A2.092,2.092,0,0,0,56.3,150.8a2.011,2.011,0,0,0-1.738.959" transform="translate(12.241 35.684)" fill="#be8d3c"/>
      <path id="Path_372" data-name="Path 372" d="M62.016,159.147a4.927,4.927,0,0,1-1.129-3.488v-7.042h3.161v6.727a2.891,2.891,0,0,0,.53,1.9,1.825,1.825,0,0,0,1.479.633,1.969,1.969,0,0,0,1.637-.8,3.715,3.715,0,0,0,.62-2.312v-6.14h3.161v11.467H68.517v-1.445h-.046a4.365,4.365,0,0,1-1.444,1.254,3.987,3.987,0,0,1-1.919.463,4.03,4.03,0,0,1-3.093-1.208" transform="translate(14.643 35.741)" fill="#be8d3c"/>
      <path id="Path_373" data-name="Path 373" d="M81.054,160.083H78.007v-3.746H75.389l-2.032,3.746H70.062l2.573-4.334a3.411,3.411,0,0,1-1.9-3.339,3.37,3.37,0,0,1,1.24-2.823,6,6,0,0,1,3.725-.97h5.349Zm-4.966-9.142a3.28,3.28,0,0,0-1.738.373,1.3,1.3,0,0,0-.587,1.185q0,1.6,2.189,1.6h2.054v-3.161Z" transform="translate(16.85 35.741)" fill="#be8d3c"/>
      <path id="Path_374" data-name="Path 374" d="M93.345,146.478a3.87,3.87,0,0,1,1.456,3.182,4.932,4.932,0,0,1-.474,2.247,5.143,5.143,0,0,1-1.275,1.615,14.727,14.727,0,0,1-2.088,1.42,21.621,21.621,0,0,0-2.111,1.355,4.154,4.154,0,0,0-.982.971,1.909,1.909,0,0,0-.293.948h7.607v2.663H83.7a4.252,4.252,0,0,1-.022-.5,8.956,8.956,0,0,1,.361-2.709,5.614,5.614,0,0,1,1.309-2.132,11.98,11.98,0,0,1,2.709-2.02,21.927,21.927,0,0,0,1.941-1.242,3.975,3.975,0,0,0,1.061-1.119,2.587,2.587,0,0,0,.361-1.365,1.731,1.731,0,0,0-.519-1.31,2.011,2.011,0,0,0-1.445-.5q-2.257,0-2.3,2.439H83.876a5.048,5.048,0,0,1,1.535-3.8,5.819,5.819,0,0,1,4.04-1.32,6.02,6.02,0,0,1,3.894,1.174" transform="translate(20.123 34.945)" fill="#be8d3c"/>
      <path id="Path_375" data-name="Path 375" d="M104,147.381a11.833,11.833,0,0,1,.012,11.795,5.943,5.943,0,0,1-9.007,0,11.829,11.829,0,0,1,.011-11.795,5.9,5.9,0,0,1,8.984,0M97.508,149.4a8.781,8.781,0,0,0-.688,3.872,8.9,8.9,0,0,0,.688,3.915,2.143,2.143,0,0,0,4,0,8.9,8.9,0,0,0,.688-3.915,8.781,8.781,0,0,0-.688-3.872,2.144,2.144,0,0,0-4,0" transform="translate(22.47 34.945)" fill="#be8d3c"/>
      <path id="Path_376" data-name="Path 376" d="M113.33,146.478a3.87,3.87,0,0,1,1.456,3.182,4.932,4.932,0,0,1-.474,2.247,5.144,5.144,0,0,1-1.275,1.615,14.727,14.727,0,0,1-2.088,1.42,21.621,21.621,0,0,0-2.111,1.355,4.154,4.154,0,0,0-.982.971,1.909,1.909,0,0,0-.293.948h7.607v2.663H103.68a4.252,4.252,0,0,1-.022-.5,8.956,8.956,0,0,1,.361-2.709,5.613,5.613,0,0,1,1.309-2.132,11.979,11.979,0,0,1,2.709-2.02,21.927,21.927,0,0,0,1.941-1.242,3.975,3.975,0,0,0,1.061-1.119,2.587,2.587,0,0,0,.361-1.365,1.731,1.731,0,0,0-.519-1.31,2.011,2.011,0,0,0-1.445-.5q-2.257,0-2.3,2.439h-3.272a5.048,5.048,0,0,1,1.534-3.8,5.819,5.819,0,0,1,4.04-1.32,6.02,6.02,0,0,1,3.894,1.174" transform="translate(24.929 34.945)" fill="#be8d3c"/>
      <path id="Path_377" data-name="Path 377" d="M123.345,146.478a3.87,3.87,0,0,1,1.456,3.182,4.932,4.932,0,0,1-.474,2.247,5.143,5.143,0,0,1-1.275,1.615,14.727,14.727,0,0,1-2.088,1.42,21.621,21.621,0,0,0-2.111,1.355,4.154,4.154,0,0,0-.982.971,1.909,1.909,0,0,0-.293.948h7.607v2.663H113.7a4.252,4.252,0,0,1-.022-.5,8.956,8.956,0,0,1,.361-2.709,5.613,5.613,0,0,1,1.309-2.132,11.98,11.98,0,0,1,2.709-2.02,21.927,21.927,0,0,0,1.941-1.242,3.975,3.975,0,0,0,1.061-1.119,2.587,2.587,0,0,0,.361-1.365,1.731,1.731,0,0,0-.519-1.31,2.011,2.011,0,0,0-1.445-.5q-2.257,0-2.3,2.439h-3.272a5.048,5.048,0,0,1,1.534-3.8,5.819,5.819,0,0,1,4.04-1.32,6.02,6.02,0,0,1,3.894,1.174" transform="translate(27.338 34.945)" fill="#be8d3c"/>
      <path id="Path_378" data-name="Path 378" d="M32.864,29.3a17.15,17.15,0,0,1,7.04,6.387A19.014,19.014,0,0,1,42.652,45.1H32.487a10.247,10.247,0,0,0-3.16-6.7,9.91,9.91,0,0,0-6.937-2.439,10.216,10.216,0,0,0-8.757,4.43q-3.195,4.43-3.194,12.193t3.125,12.19a9.976,9.976,0,0,0,8.62,4.43,10.131,10.131,0,0,0,7.04-2.439,10.65,10.65,0,0,0,3.263-6.9H42.858q-.687,8.654-6.181,13.461T22.185,78.136a22.057,22.057,0,0,1-11.813-3.09,20.014,20.014,0,0,1-7.692-8.825A31.959,31.959,0,0,1,0,52.588a31.678,31.678,0,0,1,2.713-13.6,20.131,20.131,0,0,1,7.762-8.861,22.381,22.381,0,0,1,11.916-3.09A22.99,22.99,0,0,1,32.864,29.3" transform="translate(0 6.502)" fill="#fff"/>
      <path id="Path_379" data-name="Path 379" d="M38.531,27.923H67.1v8.655H48.627V76.825h-10.1Z" transform="translate(9.266 6.715)" fill="#fff"/>
      <path id="Path_380" data-name="Path 380" d="M97.238,32.182q4.6,4.259,4.6,11.539t-4.6,11.538q-4.6,4.259-13.324,4.259h-8.38V76.825h-10.1v-48.9H83.914q8.721,0,13.324,4.259m-21.7,18.956h7.005q9,0,9-7.417t-9-7.418H75.534Z" transform="translate(15.737 6.715)" fill="#fff"/>
      <path id="Path_381" data-name="Path 381" d="M105.139,64.875l-3.846,11.951H90.716l16.965-48.9h13.6l16.965,48.9H127.667l-3.777-11.951Zm14.973-11.883Q116.746,42.28,114.548,33.9h-.136q-2.542,9.616-5.5,19.092l-1.03,3.23h13.256Z" transform="translate(21.817 6.716)" fill="#fff"/>
      <path id="Path_382" data-name="Path 382" d="M188.514,64.875l-3.846,11.951H174.091l16.965-48.9h13.6l16.965,48.9H211.042l-3.777-11.951Zm14.973-11.883Q200.121,42.28,197.923,33.9h-.136q-2.542,9.616-5.5,19.092l-1.03,3.23h13.256Z" transform="translate(41.868 6.716)" fill="#fff"/>
      <path id="Path_383" data-name="Path 383" d="M257.594,76.825V55.74H237.539V76.825h-10.1v-48.9h10.1V47.085h20.055V27.923h10.1v48.9Z" transform="translate(54.699 6.715)" fill="#fff"/>
      <path id="Path_384" data-name="Path 384" d="M277,64.875l-3.847,11.951H262.581l16.964-48.9h13.6l16.965,48.9H299.532l-3.777-11.951Zm14.972-11.883Q288.61,42.28,286.413,33.9h-.138q-2.542,9.616-5.494,19.092l-1.03,3.23h13.255Z" transform="translate(63.149 6.716)" fill="#fff"/>
      <path id="Path_385" data-name="Path 385" d="M2.492,73.1H31.063v8.655H12.588v40.247H2.492Z" transform="translate(0.599 17.581)" fill="#fff"/>
      <path id="Path_386" data-name="Path 386" d="M61.327,75.309a20.255,20.255,0,0,1,8,8.826,30.953,30.953,0,0,1,2.782,13.633A30.95,30.95,0,0,1,69.328,111.4a20.262,20.262,0,0,1-8,8.826,23.822,23.822,0,0,1-12.363,3.09,23.814,23.814,0,0,1-12.362-3.09,20.257,20.257,0,0,1-8-8.826,30.95,30.95,0,0,1-2.781-13.633A30.953,30.953,0,0,1,28.6,84.135a20.25,20.25,0,0,1,8-8.826,23.815,23.815,0,0,1,12.362-3.091,23.823,23.823,0,0,1,12.363,3.091M39.658,85.577q-3.4,4.43-3.4,12.192t3.4,12.19a11.093,11.093,0,0,0,9.306,4.431,11.093,11.093,0,0,0,9.306-4.431q3.4-4.43,3.4-12.19t-3.4-12.192a11.092,11.092,0,0,0-9.306-4.43,11.092,11.092,0,0,0-9.306,4.43" transform="translate(6.209 17.368)" fill="#fff"/>
      <path id="Path_387" data-name="Path 387" d="M114.567,122.006h-51.1v-8.655h4.808L82.219,73.1h13.6l13.943,40.247h4.807ZM94.65,98.173q-3.366-10.714-5.562-19.094H88.95Q86.408,88.7,83.456,98.173l-4.878,15.177h20.88Z" transform="translate(15.264 17.581)" fill="#fff"/>
      <path id="Path_388" data-name="Path 388" d="M118.293,91.924q0,9.888-.55,21.221h.138q3.708-9.133,8.928-20.192L136.287,73.1h14.354v48.9h-9.683V103.187q0-9.89.55-21.222h-.138q-3.708,9.134-8.929,20.192l-9.477,19.849H108.608V73.1h9.685Z" transform="translate(26.12 17.581)" fill="#fff"/>
      <path id="Path_389" data-name="Path 389" d="M178.014,122.005V100.921h-21.3v21.085h-10.1V73.1h10.1V92.266h21.3V73.1h10.1v48.9Z" transform="translate(35.262 17.581)" fill="#fff"/>
      <path id="Path_390" data-name="Path 390" d="M197.183,110.055l-3.846,11.951H182.76l16.965-48.9h13.6l16.965,48.9H219.711l-3.777-11.951Zm14.973-11.881q-3.366-10.714-5.564-19.094h-.136q-2.542,9.616-5.5,19.094l-1.03,3.229h13.256Z" transform="translate(43.953 17.581)" fill="#fff"/>
      <path id="Path_391" data-name="Path 391" d="M240.523,81.759v40.247h-10.1V81.759H215.043V73.1h40.864v8.655Z" transform="translate(51.717 17.581)" fill="#fff"/>
      <path id="Path_392" data-name="Path 392" d="M256.377,110.055l-3.848,11.951H241.954l16.964-48.9h13.6l16.965,48.9H278.9l-3.777-11.951Zm14.97-11.881q-3.366-10.714-5.562-19.094h-.136q-2.544,9.616-5.494,19.094l-1.031,3.229H272.38Z" transform="translate(58.189 17.581)" fill="#fff"/>
      <path id="Path_393" data-name="Path 393" d="M182.077,76.826h-51.1V68.171h4.808l13.942-40.247h13.6l13.943,40.247h4.807ZM162.16,52.992Q158.794,42.28,156.6,33.9h-.138q-2.542,9.616-5.494,19.092l-4.878,15.179h20.88Z" transform="translate(31.5 6.716)" fill="#fff"/>
    </g>
  </g>
</svg>
