<svg xmlns="http://www.w3.org/2000/svg" xmlns:xlink="http://www.w3.org/1999/xlink" width="32" height="31.871" viewBox="0 0 32 31.871">
  <defs>
    <clipPath id="clip-path">
      <rect id="Rectangle_436" data-name="Rectangle 436" width="32" height="31.871" fill="#be8d3c"/>
    </clipPath>
  </defs>
  <g id="Group_367" data-name="Group 367" transform="translate(0 0)">
    <g id="Group_366" data-name="Group 366" transform="translate(0 0)" clip-path="url(#clip-path)">
      <path id="Path_798" data-name="Path 798" d="M16,0a16,16,0,0,0-2,31.871V20.68H10v-4h4V13a5.972,5.972,0,0,1,2.248-5.078c2.769-2.08,6.854-.976,7.311-.842l-1.11,3.843c-.841-.238-2.877-.5-3.8.2-.16.121-.645.489-.645,1.877v3.68h4v4H18V31.871A16,16,0,0,0,16,0" transform="translate(0 0)" fill="#be8d3c"/>
    </g>
  </g>
</svg>
