<svg xmlns="http://www.w3.org/2000/svg" width="24" height="24" viewBox="0 0 24 24">
  <g id="Group_632" data-name="Group 632" transform="translate(0 0)">
    <g id="Group_633" data-name="Group 633">
      <path id="Path_934" data-name="Path 934" d="M28.754,14H22.746a.746.746,0,0,0-.746.746v9.007a.746.746,0,0,0,.746.746h6.007a.746.746,0,0,0,.746-.746V14.746A.746.746,0,0,0,28.754,14" transform="translate(-13.75 -8.75)"/>
      <path id="Path_935" data-name="Path 935" d="M23.976,11.222A12,12,0,1,0,11.22,23.975,12.045,12.045,0,0,0,23.976,11.222M17.25,18.748a1.5,1.5,0,0,1-1.5,1.5h-7.5a1.5,1.5,0,0,1-1.5-1.5V5.251a1.5,1.5,0,0,1,1.5-1.5h7.5a1.5,1.5,0,0,1,1.5,1.5Z" transform="translate(0 0)"/>
      <path id="Path_936" data-name="Path 936" d="M30.75,46a.75.75,0,1,0,.75.75.75.75,0,0,0-.75-.75" transform="translate(-18.75 -28.75)"/>
    </g>
  </g>
</svg>
