<svg id="Group_190" data-name="Group 190" xmlns="http://www.w3.org/2000/svg" xmlns:xlink="http://www.w3.org/1999/xlink" width="20" height="20" viewBox="0 0 20 20">
  <defs>
    <clipPath id="clip-path">
      <rect id="Rectangle_314" data-name="Rectangle 314" width="20" height="20" fill="#be8d3c"/>
    </clipPath>
  </defs>
  <g id="Group_189" data-name="Group 189" clip-path="url(#clip-path)">
    <path id="Path_398" data-name="Path 398" d="M10,0A10,10,0,1,0,20,10,10,10,0,0,0,10,0m6.25,14.688a1.563,1.563,0,0,1-1.562,1.563H5.313A1.563,1.563,0,0,1,3.75,14.688V5.313A1.563,1.563,0,0,1,5.313,3.75h9.375A1.563,1.563,0,0,1,16.25,5.313Z" fill="#be8d3c"/>
    <path id="Path_399" data-name="Path 399" d="M27.875,26a1.875,1.875,0,1,0,1.875,1.875A1.875,1.875,0,0,0,27.875,26" transform="translate(-17.875 -17.875)" fill="#be8d3c"/>
    <path id="Path_400" data-name="Path 400" d="M25.375,16h-8.75a.625.625,0,0,0-.625.625v8.75a.625.625,0,0,0,.625.625h8.75A.625.625,0,0,0,26,25.375v-8.75A.625.625,0,0,0,25.375,16M21,24.125A3.125,3.125,0,1,1,24.125,21,3.125,3.125,0,0,1,21,24.125M24.125,18.5a.625.625,0,1,1,.625-.625.625.625,0,0,1-.625.625" transform="translate(-11 -11)" fill="#be8d3c"/>
  </g>
</svg>
