<svg xmlns="http://www.w3.org/2000/svg" xmlns:xlink="http://www.w3.org/1999/xlink" width="20" height="20" viewBox="0 0 20 20">
  <defs>
    <clipPath id="clip-path">
      <rect id="Rectangle_311" data-name="Rectangle 311" width="20" height="20" transform="translate(0 0)" fill="#be8d3c"/>
    </clipPath>
    <clipPath id="clip-path-2">
      <rect id="Rectangle_312" data-name="Rectangle 312" width="64" height="64" fill="#be8d3c"/>
    </clipPath>
  </defs>
  <g id="Group_184" data-name="Group 184" transform="translate(-0.077 -0.077)">
    <g id="Group_183" data-name="Group 183" transform="translate(0.077 0.077)" clip-path="url(#clip-path)">
      <path id="Path_395" data-name="Path 395" d="M11.394,8.676a.938.938,0,0,1,0-1.328l5.041-5.042A10.035,10.035,0,0,0,2.307,16.436l5.02-5.02a.939.939,0,0,1,1.328,1.328l-5.021,5.02A10.035,10.035,0,0,0,17.764,3.635L12.722,8.676a.939.939,0,0,1-1.328,0m-5.066,1.4A1.725,1.725,0,0,0,5.935,11.9L4.547,13.287A3.606,3.606,0,0,1,5,8.748L8.727,5.021a3.607,3.607,0,0,1,4.54-.452L11.879,5.957a1.725,1.725,0,0,0-1.825.393Zm7.786-1.885L15.5,6.8a3.606,3.606,0,0,1-.453,4.539l-3.726,3.727a3.607,3.607,0,0,1-4.54.452L8.17,14.135a1.722,1.722,0,0,0,1.824-.393l3.727-3.727a1.724,1.724,0,0,0,.393-1.824" transform="translate(-0.07 -0.07)" fill="#be8d3c"/>
      <g id="Group_186" data-name="Group 186" transform="translate(-189 -50)">
        <g id="Group_185" data-name="Group 185" clip-path="url(#clip-path-2)">
          <path id="Path_396" data-name="Path 396" d="M32,0A32,32,0,1,0,64,32,32,32,0,0,0,32,0M50,18,32,30,14,18Zm2,22.085A3.914,3.914,0,0,1,48.084,44H15.916A3.916,3.916,0,0,1,12,40.084V22L32,35,52,22Z" fill="#be8d3c"/>
        </g>
      </g>
    </g>
  </g>
</svg>
