<svg xmlns="http://www.w3.org/2000/svg" width="20" height="20" viewBox="0 0 20 20"><defs><clipPath><rect width="20" height="20"/></clipPath></defs><g clip-path="url(#clip-path)"><path d="M7.09,14.494H12.91a.649.649,0,1,0,0-1.3H7.09a.649.649,0,1,0,0,1.3m0-2.6H12.91a.649.649,0,1,0,0-1.3H7.09a.649.649,0,1,0,0,1.3m0-2.634H12.91a.649.649,0,1,0,0-1.3H7.09a.649.649,0,1,0,0,1.3m0-2.543H10.2a.649.649,0,0,0,0-1.3H7.09a.649.649,0,1,0,0,1.3M10,0A10,10,0,1,0,20,10,10,10,0,0,0,10,0m5,6.042v9.835H5V4.123H15Zm-2.6.684H15l-2.6-2.6Z"/></g></svg>
