<svg xmlns="http://www.w3.org/2000/svg" xmlns:xlink="http://www.w3.org/1999/xlink" width="32" height="32" viewBox="0 0 32 32">
  <defs>
    <clipPath id="clip-path">
      <rect id="Rectangle_435" data-name="Rectangle 435" width="32" height="32" fill="#be8d3c"/>
    </clipPath>
  </defs>
  <g id="Group_365" data-name="Group 365" clip-path="url(#clip-path)">
    <path id="Path_795" data-name="Path 795" d="M16,0A16,16,0,1,0,32,16,16,16,0,0,0,16,0M26,23.5A2.5,2.5,0,0,1,23.5,26H8.5A2.5,2.5,0,0,1,6,23.5V8.5A2.5,2.5,0,0,1,8.5,6h15A2.5,2.5,0,0,1,26,8.5Z" fill="#be8d3c"/>
    <path id="Path_796" data-name="Path 796" d="M29.5,27A2.5,2.5,0,1,0,32,29.5,2.5,2.5,0,0,0,29.5,27" transform="translate(-13.5 -13.5)" fill="#be8d3c"/>
    <path id="Path_797" data-name="Path 797" d="M31.125,18H18.875a.875.875,0,0,0-.875.875v12.25a.875.875,0,0,0,.875.875h12.25A.875.875,0,0,0,32,31.125V18.875A.875.875,0,0,0,31.125,18M25,30a5,5,0,1,1,5-5,5,5,0,0,1-5,5m5-9a1,1,0,1,1,1-1,1,1,0,0,1-1,1" transform="translate(-9 -9)" fill="#be8d3c"/>
  </g>
</svg>
