<svg id="Group_369" data-name="Group 369" xmlns="http://www.w3.org/2000/svg" xmlns:xlink="http://www.w3.org/1999/xlink" width="32" height="32" viewBox="0 0 32 32">
  <defs>
    <clipPath id="clip-path">
      <rect id="Rectangle_437" data-name="Rectangle 437" width="32" height="32" fill="#be8d3c"/>
    </clipPath>
  </defs>
  <g id="Group_368" data-name="Group 368" clip-path="url(#clip-path)">
    <path id="Path_799" data-name="Path 799" d="M16,0A16,16,0,1,0,32,16,16,16,0,0,0,16,0M12.154,23.886c0,.29-.053.368-.369.368H9.175c-.316,0-.368-.078-.368-.368v-10.2H6.778c-.317,0-.37-.078-.37-.369V11.6c0-.29.052-.369.37-.369h5.008c.316,0,.369.079.369.369ZM10.467,9.521A2.183,2.183,0,0,1,8.279,7.333a2.175,2.175,0,1,1,2.188,2.188M24.489,23.886c0,.29-.052.368-.369.368H21.51c-.316,0-.368-.078-.368-.368V15.768c0-1-.132-2.214-1.476-2.214a3.609,3.609,0,0,0-2.319,1.08v9.252c0,.29-.053.368-.369.368h-2.61c-.316,0-.368-.078-.368-.368V15.925a10.585,10.585,0,0,0-.5-4.111c0-.132.105-.237.29-.29l2-.659a1.322,1.322,0,0,1,.4-.079c.342,0,.553.58.843,1.819a5.685,5.685,0,0,1,4.033-1.819c1.449,0,3.427.658,3.427,3.847Z" fill="#be8d3c"/>
  </g>
</svg>
