<svg xmlns="http://www.w3.org/2000/svg" width="32" height="32" viewBox="0 0 32 32">
  <path id="Path_794" data-name="Path 794" d="M16,0A16,16,0,1,0,32,16,16,16,0,0,0,16,0M26.06,18.828l-.112,1.628a3.286,3.286,0,0,1-3.025,2.973l-4.093.21c-1.557.08-4.1.08-5.662,0l-4.093-.21a3.286,3.286,0,0,1-3.025-2.973l-.112-1.628a49.869,49.869,0,0,1,0-5.656l.112-1.628A3.286,3.286,0,0,1,9.076,8.571l4.093-.21c1.557-.08,4.105-.08,5.662,0l4.093.21a3.286,3.286,0,0,1,3.025,2.973l.112,1.628a50.1,50.1,0,0,1,0,5.656m-14.618,2.38,10.7-5.241-10.7-5.174Z" fill="#be8d3c"/>
</svg>
