<svg id="Group_153" data-name="Group 153" xmlns="http://www.w3.org/2000/svg" xmlns:xlink="http://www.w3.org/1999/xlink" width="405.232" height="200" viewBox="0 0 405.232 200">
  <defs>
    <clipPath id="clip-path">
      <rect id="Rectangle_302" data-name="Rectangle 302" width="405.232" height="200" fill="none"/>
    </clipPath>
  </defs>
  <rect id="Rectangle_299" data-name="Rectangle 299" width="149.089" height="2.472" transform="translate(2.946 157.74)" fill="#be8d3c"/>
  <g id="Group_152" data-name="Group 152">
    <g id="Group_151" data-name="Group 151" clip-path="url(#clip-path)">
      <path id="Path_332" data-name="Path 332" d="M35.82,56.246a12.561,12.561,0,0,0-7.185-3.794v-.135a13.19,13.19,0,0,0,6.278-4.3,11.153,11.153,0,0,0,2.055-6.851,10.658,10.658,0,0,0-4.365-9q-4.366-3.291-13.027-3.29H2.384V76.693H21.052q7.992,0,12.517-3.524A11.48,11.48,0,0,0,38.1,63.6a11.072,11.072,0,0,0-2.283-7.354M19.711,36.939a10.06,10.06,0,0,1,5.938,1.383A5.048,5.048,0,0,1,27.5,42.648a5.14,5.14,0,0,1-1.977,4.5,10.988,10.988,0,0,1-6.278,1.41H12.256V36.939Zm6.377,30.185q-2.015,1.444-6.513,1.444H12.256V56.34h7.051q4.7,0,6.749,1.483A5.476,5.476,0,0,1,28.1,62.591a5.191,5.191,0,0,1-2.014,4.533" transform="translate(0.562 6.813)" fill="#fff"/>
      <path id="Path_333" data-name="Path 333" d="M72.227,58.427q0,9.4-4.944,14.371T53.219,77.768q-9.132,0-14.068-4.969T34.216,58.427V28.881h9.871v29.21q0,5.3,2.348,8.125a8.325,8.325,0,0,0,6.784,2.822A8.327,8.327,0,0,0,60,66.217q2.349-2.82,2.348-8.125V28.881h9.877Z" transform="translate(8.071 6.813)" fill="#fff"/>
      <rect id="Rectangle_300" data-name="Rectangle 300" width="9.871" height="47.812" transform="translate(85.282 35.694)" fill="#fff"/>
      <path id="Path_334" data-name="Path 334" d="M143.705,35.093q-6.581-6.212-18.8-6.212H108.988V76.693H124.9q12.222,0,18.8-6.212t6.581-17.694q0-11.483-6.581-17.694M136.285,64.4q-3.795,3.832-11.516,3.831h-5.977v-30.9h5.977q7.721,0,11.516,3.831t3.794,11.617q0,7.786-3.794,11.617" transform="translate(25.709 6.813)" fill="#fff"/>
      <rect id="Rectangle_301" data-name="Rectangle 301" width="9.871" height="47.812" transform="translate(179.602 35.694)" fill="#fff"/>
      <path id="Path_335" data-name="Path 335" d="M184.381,76.693l-9.269-19.4q-5.1-10.812-8.729-19.742h-.135q.538,11.08.538,20.749v18.4h-9.468V28.881h14.035l9.269,19.4q5.1,10.812,8.729,19.742h.135q-.538-11.08-.538-20.749v-18.4h9.468V76.693Z" transform="translate(37.109 6.813)" fill="#fff"/>
      <path id="Path_336" data-name="Path 336" d="M216.2,28.013q8.73,0,13.964,4.264a16.517,16.517,0,0,1,5.977,11.717h-10.61a8.592,8.592,0,0,0-3.022-5.406,9.939,9.939,0,0,0-6.312-1.846,10.877,10.877,0,0,0-9.132,4.4q-3.357,4.4-3.358,12.054,0,7.857,3.29,12.359a10.551,10.551,0,0,0,9,4.5,10.364,10.364,0,0,0,7.922-2.922q2.753-2.922,2.82-8.428H215.389V50.645h20.548V76.9h-8.326v-5.17h-.136a13.759,13.759,0,0,1-5.674,4.5,20.087,20.087,0,0,1-8.292,1.612A18.729,18.729,0,0,1,202.9,74.851a19.3,19.3,0,0,1-6.952-8.528A32.3,32.3,0,0,1,193.5,53.2a30.6,30.6,0,0,1,2.755-13.43,19.827,19.827,0,0,1,7.889-8.729A23.34,23.34,0,0,1,216.2,28.013" transform="translate(45.642 6.606)" fill="#fff"/>
      <path id="Path_337" data-name="Path 337" d="M42.549,84.119a19.8,19.8,0,0,0-7.823-8.629,23.294,23.294,0,0,0-12.087-3.022A23.294,23.294,0,0,0,10.552,75.49a19.8,19.8,0,0,0-7.823,8.629A30.262,30.262,0,0,0,.01,97.448a30.262,30.262,0,0,0,2.719,13.329,19.8,19.8,0,0,0,7.823,8.629,23.294,23.294,0,0,0,12.087,3.022,23.294,23.294,0,0,0,12.087-3.022,19.8,19.8,0,0,0,7.823-8.629,30.261,30.261,0,0,0,2.719-13.329,30.261,30.261,0,0,0-2.719-13.329M31.738,109.361a10.844,10.844,0,0,1-9.1,4.326,10.844,10.844,0,0,1-9.1-4.326q-3.324-4.325-3.325-11.919T13.54,85.523a10.844,10.844,0,0,1,9.1-4.326h0a10.848,10.848,0,0,1,9.1,4.324q3.324,4.325,3.325,11.919t-3.325,11.919" transform="translate(0 17.093)" fill="#fff"/>
      <path id="Path_338" data-name="Path 338" d="M49.426,81.8V94.826H67.393v8.461H49.426v17.862H39.553V73.337H71V81.8Z" transform="translate(9.33 17.299)" fill="#fff"/>
      <path id="Path_339" data-name="Path 339" d="M144.135,121.148V100.533H124.9v20.616H115.03V73.337H124.9V92.072h19.233V73.337h9.871v47.812Z" transform="translate(27.134 17.299)" fill="#fff"/>
      <path id="Path_340" data-name="Path 340" d="M160.447,81.8V92.609h20.166V101H160.447v11.684h23.771v8.461H150.575V73.337h33.038V81.8Z" transform="translate(35.519 17.299)" fill="#fff"/>
      <path id="Path_341" data-name="Path 341" d="M219.118,121.147h-9.872v-18.6l-16.314-29.21h11.08l4.567,9q3.022,5.977,5.574,12.155h.135q2.553-6.179,5.574-12.155l4.567-9H235.44l-16.314,29.21Z" transform="translate(45.51 17.299)" fill="#fff"/>
      <path id="Path_342" data-name="Path 342" d="M287.577,73.337h-13.3l-16.588,47.81h10.341l3.761-11.684H290.13l3.693,11.684h10.341ZM274.481,101l1.007-3.156q2.888-9.26,5.372-18.662H281q2.149,8.187,5.438,18.662L287.442,101Z" transform="translate(60.787 17.299)" fill="#fff"/>
      <path id="Path_343" data-name="Path 343" d="M330.425,107.92a25.993,25.993,0,0,0-3.156-6.413,8.775,8.775,0,0,0-4.029-2.854v-.135a11.8,11.8,0,0,0,6.39-4.227,11.958,11.958,0,0,0,2.348-7.454q0-6.52-4.3-10.011t-13.162-3.491h-17.6v47.812h9.871v-18.27h5.438a7.963,7.963,0,0,1,5.271,1.511,12.351,12.351,0,0,1,3.123,5.406l3.831,11.348h10.745ZM313.78,95.026H306.8v-13.7h6.446q8.8,0,8.8,6.648,0,7.05-8.259,7.051" transform="translate(70.038 17.299)" fill="#fff"/>
      <path id="Path_344" data-name="Path 344" d="M12.254,16.116,8.142,9.092,5.808,5.114Q4.518,2.847,3.852,1.736H3.808l.023,7.912v6.467H2.385V.29h2.2L8.7,7.315l2.333,3.977q1.288,2.267,1.955,3.375h.046q-.026-2.642-.026-7.908V.292H14.45V16.116Zm9.468-11.58a4.264,4.264,0,0,1,3.1,1.089,4.324,4.324,0,0,1,1.122,3.248V13.34a13.878,13.878,0,0,0,.245,2.778H24.9a8.476,8.476,0,0,1-.156-1.712H24.7a4.3,4.3,0,0,1-4.02,1.933,4.09,4.09,0,0,1-2.768-.91A2.946,2.946,0,0,1,16.854,13.1a2.815,2.815,0,0,1,.966-2.268,6.936,6.936,0,0,1,3.323-1.2q1.622-.267,3.468-.4V8.693a2.953,2.953,0,0,0-.779-2.248,2.962,2.962,0,0,0-2.111-.733,3.089,3.089,0,0,0-2.129.677,2.554,2.554,0,0,0-.828,1.834H17.321a3.767,3.767,0,0,1,1.256-2.662,4.548,4.548,0,0,1,3.145-1.025Zm2.89,5.845q-1.444.111-3.29.4a5.27,5.27,0,0,0-2.333.755A1.742,1.742,0,0,0,18.321,13a1.972,1.972,0,0,0,.7,1.589,2.935,2.935,0,0,0,1.944.592,4.093,4.093,0,0,0,1.456-.256,3.031,3.031,0,0,0,1.146-.745,3.583,3.583,0,0,0,.827-1.233,5.117,5.117,0,0,0,.222-1.7Zm7.467,4.6a3.183,3.183,0,0,0,.779-.089v1.183a4.592,4.592,0,0,1-1.022.111,2.731,2.731,0,0,1-2.111-.709,3.429,3.429,0,0,1-.645-2.333V5.98H27.057V4.825h2.022V2.2h1.378V4.824h2.289V5.979h-2.29v7.135a2.217,2.217,0,0,0,.367,1.434,1.568,1.568,0,0,0,1.256.435Zm2.6,1.133V4.824h1.377V16.116Zm0-13.869V.289h1.377v1.96Zm8.691,2.29A4.741,4.741,0,0,1,47.15,6.125a6.407,6.407,0,0,1,1.377,4.345,6.407,6.407,0,0,1-1.377,4.345A4.741,4.741,0,0,1,43.368,16.4a4.739,4.739,0,0,1-3.778-1.589,6.408,6.408,0,0,1-1.378-4.345A6.408,6.408,0,0,1,39.59,6.124a4.738,4.738,0,0,1,3.778-1.587Zm0,1.2A3.267,3.267,0,0,0,40.651,7a5.5,5.5,0,0,0-.989,3.468,5.5,5.5,0,0,0,.989,3.468,3.581,3.581,0,0,0,5.465,0A5.49,5.49,0,0,0,47.1,10.47,5.49,5.49,0,0,0,46.116,7a3.288,3.288,0,0,0-2.747-1.267ZM55.595,4.58a3.773,3.773,0,0,1,2.991,1.183,5.151,5.151,0,0,1,1.033,3.489v6.864H58.237v-6.8a4.035,4.035,0,0,0-.733-2.72,2.758,2.758,0,0,0-2.158-.813A3.321,3.321,0,0,0,53.7,6.2a3.036,3.036,0,0,0-1.193,1.251,4.1,4.1,0,0,0-.445,1.977v6.685H50.681V4.825h1.355V6.362h.044a3.766,3.766,0,0,1,1.456-1.3,4.4,4.4,0,0,1,2.057-.482Zm10.779-.044a4.263,4.263,0,0,1,3.1,1.089,4.331,4.331,0,0,1,1.121,3.248V13.34a13.764,13.764,0,0,0,.246,2.776H69.552a8.551,8.551,0,0,1-.157-1.712H69.35a4.3,4.3,0,0,1-4.022,1.934,4.087,4.087,0,0,1-2.767-.911A2.947,2.947,0,0,1,61.5,13.094a2.818,2.818,0,0,1,.966-2.268,6.938,6.938,0,0,1,3.322-1.2q1.624-.267,3.468-.4V8.693a2.948,2.948,0,0,0-.779-2.248,2.96,2.96,0,0,0-2.111-.733,3.086,3.086,0,0,0-2.128.677,2.549,2.549,0,0,0-.828,1.834H61.97a3.77,3.77,0,0,1,1.258-2.662,4.545,4.545,0,0,1,3.144-1.025Zm2.89,5.845q-1.444.111-3.289.4a5.265,5.265,0,0,0-2.333.755A1.735,1.735,0,0,0,62.974,13a1.971,1.971,0,0,0,.7,1.589,2.936,2.936,0,0,0,1.945.592,4.093,4.093,0,0,0,1.456-.256,3.036,3.036,0,0,0,1.144-.745,3.569,3.569,0,0,0,.828-1.233,5.182,5.182,0,0,0,.222-1.7ZM73.507.29h1.378V16.115H73.507ZM88.309,0A6.72,6.72,0,0,1,91.5.725a5.289,5.289,0,0,1,2.123,1.989,6.174,6.174,0,0,1,.844,2.867H92.957a4.553,4.553,0,0,0-1.434-3.075,4.583,4.583,0,0,0-3.211-1.146,4.826,4.826,0,0,0-2.812.828,5.165,5.165,0,0,0-1.822,2.365,9.6,9.6,0,0,0-.634,3.656,9.592,9.592,0,0,0,.634,3.656,5.2,5.2,0,0,0,1.812,2.365,4.727,4.727,0,0,0,2.778.828,4.622,4.622,0,0,0,3.222-1.167,4.979,4.979,0,0,0,1.556-3.145h1.507a6.9,6.9,0,0,1-.978,2.975A5.427,5.427,0,0,1,91.408,15.7a6.791,6.791,0,0,1-3.144.7,6.437,6.437,0,0,1-3.587-.984,6.36,6.36,0,0,1-2.344-2.839A10.669,10.669,0,0,1,81.505,8.2a10.671,10.671,0,0,1,.828-4.376A6.334,6.334,0,0,1,84.689.986,6.531,6.531,0,0,1,88.309,0m12.847,4.534a4.739,4.739,0,0,1,3.778,1.589,6.408,6.408,0,0,1,1.378,4.345,6.408,6.408,0,0,1-1.378,4.345,5.291,5.291,0,0,1-7.559,0A6.407,6.407,0,0,1,96,10.469a6.407,6.407,0,0,1,1.377-4.345,4.741,4.741,0,0,1,3.779-1.587Zm0,1.2A3.265,3.265,0,0,0,98.436,7a5.49,5.49,0,0,0-.989,3.468,5.49,5.49,0,0,0,.989,3.468,3.581,3.581,0,0,0,5.465,0,5.5,5.5,0,0,0,.989-3.468A5.5,5.5,0,0,0,103.9,7a3.288,3.288,0,0,0-2.746-1.268ZM113.38,4.581a3.768,3.768,0,0,1,2.99,1.183A5.152,5.152,0,0,1,117.4,9.253v6.863H116.02v-6.8a4.035,4.035,0,0,0-.733-2.72,2.754,2.754,0,0,0-2.157-.811,3.317,3.317,0,0,0-1.645.421,3.044,3.044,0,0,0-1.2,1.248,4.1,4.1,0,0,0-.445,1.977v6.685h-1.378V4.825h1.356V6.362h.047a3.757,3.757,0,0,1,1.456-1.3,4.4,4.4,0,0,1,2.053-.482Zm10.134,10.4a3.176,3.176,0,0,0,.779-.089v1.183a4.584,4.584,0,0,1-1.022.111,2.733,2.733,0,0,1-2.111-.709,3.429,3.429,0,0,1-.644-2.333V5.98h-2.023V4.825h2.023V2.2h1.377V4.824h2.288V5.979h-2.289v7.135a2.223,2.223,0,0,0,.366,1.434,1.569,1.569,0,0,0,1.256.435Zm6.49.245a3.511,3.511,0,0,0,2.22-.679,3.13,3.13,0,0,0,1.132-1.79h1.42a4.363,4.363,0,0,1-1.523,2.6A4.868,4.868,0,0,1,130,16.406a4.654,4.654,0,0,1-3.779-1.656,6.79,6.79,0,0,1-1.378-4.479,6.9,6.9,0,0,1,.612-2.967,4.765,4.765,0,0,1,1.756-2.033,4.9,4.9,0,0,1,2.7-.733A4.683,4.683,0,0,1,133.053,5.6a5.022,5.022,0,0,1,1.634,2.957,10.548,10.548,0,0,1,.178,2.178h-8.624a4.968,4.968,0,0,0,1.09,3.334A3.43,3.43,0,0,0,130,15.226Zm-.088-9.513A3.381,3.381,0,0,0,127.36,6.76a4.256,4.256,0,0,0-1.09,2.845h7.268a4.378,4.378,0,0,0-1.09-2.867,3.347,3.347,0,0,0-2.534-1.023Zm10.557-1.183a4.458,4.458,0,0,1,3.111,1.011A3.727,3.727,0,0,1,144.717,8.4H143.34a2.546,2.546,0,0,0-.755-1.966,2.989,2.989,0,0,0-2.112-.7,3.078,3.078,0,0,0-1.855.512,1.6,1.6,0,0,0-.7,1.355,1.584,1.584,0,0,0,.289,1.022,1.735,1.735,0,0,0,.811.534q.523.178,1.745.467a19.885,19.885,0,0,1,2.29.634,3.369,3.369,0,0,1,1.409.981,2.767,2.767,0,0,1,.592,1.879,2.885,2.885,0,0,1-1.156,2.378,5.689,5.689,0,0,1-6.4-.153,3.9,3.9,0,0,1-1.224-3.023h1.4a2.755,2.755,0,0,0,.828,2.128,3.328,3.328,0,0,0,2.333.756,3.5,3.5,0,0,0,2.057-.556,1.7,1.7,0,0,0,.788-1.444,1.72,1.72,0,0,0-.34-1.137,2.148,2.148,0,0,0-.978-.622q-.645-.222-2.045-.556a18.681,18.681,0,0,1-2.033-.578,2.859,2.859,0,0,1-1.233-.89,2.616,2.616,0,0,1-.51-1.712,2.8,2.8,0,0,1,1.1-2.3,4.4,4.4,0,0,1,2.831-.871ZM150.63,14.979a3.177,3.177,0,0,0,.779-.089v1.183a4.591,4.591,0,0,1-1.022.111,2.728,2.728,0,0,1-2.111-.709,3.43,3.43,0,0,1-.645-2.333V5.98h-2.022V4.825h2.022V2.2h1.378V4.824h2.29V5.979h-2.293v7.135a2.222,2.222,0,0,0,.367,1.436,1.572,1.572,0,0,0,1.256.433Z" transform="translate(0.563 0)" fill="#fff"/>
      <path id="Path_345" data-name="Path 345" d="M8.476,144.377a7.617,7.617,0,0,1,4.616,1.165,3.775,3.775,0,0,1,1.546,3.187,3.949,3.949,0,0,1-.725,2.427,4.68,4.68,0,0,1-2.222,1.53v.047a4.455,4.455,0,0,1,2.546,1.34,3.929,3.929,0,0,1,.808,2.607,4.066,4.066,0,0,1-1.612,3.391A7.064,7.064,0,0,1,9,161.321H2.384V144.377Zm-2.6,6.973H8.357a3.9,3.9,0,0,0,2.226-.5,1.823,1.823,0,0,0,.7-1.6,1.788,1.788,0,0,0-.654-1.534,3.564,3.564,0,0,0-2.106-.488H5.878Zm0,7.092h2.6a4.037,4.037,0,0,0,2.309-.51,1.842,1.842,0,0,0,.708-1.607,1.94,1.94,0,0,0-.725-1.689,4.186,4.186,0,0,0-2.386-.525h-2.5Zm15.5,3.165a4.252,4.252,0,0,1-3.26-1.274,5.194,5.194,0,0,1-1.189-3.677V149.23h3.331v7.093a3.045,3.045,0,0,0,.56,2,1.925,1.925,0,0,0,1.558.666,2.079,2.079,0,0,0,1.725-.845,3.926,3.926,0,0,0,.654-2.44v-6.474h3.331v12.092H24.969V159.8h-.047a4.6,4.6,0,0,1-1.523,1.32,4.184,4.184,0,0,1-2.024.488m9.709-17.23h3.331v16.944H31.084ZM41.627,148.9a3.815,3.815,0,0,1,1.928.463,4.7,4.7,0,0,1,1.5,1.488H45.1V149.23h3.14v11.333a5.106,5.106,0,0,1-1.52,4.018,6.106,6.106,0,0,1-4.214,1.356,6.314,6.314,0,0,1-3.831-1.023,3.717,3.717,0,0,1-1.523-2.833h3.331a1.386,1.386,0,0,0,.591,1.083,2.536,2.536,0,0,0,1.5.393,2.266,2.266,0,0,0,1.808-.708,3.677,3.677,0,0,0,.619-2.4v-1.07h-.048a4.3,4.3,0,0,1-1.471,1.376,4.018,4.018,0,0,1-1.9.428,4.587,4.587,0,0,1-2.619-.749,4.818,4.818,0,0,1-1.725-2.142,8.062,8.062,0,0,1-.607-3.248,7.939,7.939,0,0,1,.618-3.249A4.866,4.866,0,0,1,39,149.648a4.647,4.647,0,0,1,2.631-.75m.9,2.736a2.065,2.065,0,0,0-1.77.916,5.071,5.071,0,0,0,0,4.977,2.068,2.068,0,0,0,1.771.916,2.227,2.227,0,0,0,1.869-.928,4.727,4.727,0,0,0,0-4.957,2.227,2.227,0,0,0-1.867-.922Zm13.446-2.784a5.555,5.555,0,0,1,3.878,1.2,4.624,4.624,0,0,1,1.309,3.58v4.379a13.39,13.39,0,0,0,.334,3.3h-3a6.918,6.918,0,0,1-.167-1.618h-.042a4.49,4.49,0,0,1-3.931,1.909,4.239,4.239,0,0,1-3-1.036,3.425,3.425,0,0,1-1.12-2.63,3.17,3.17,0,0,1,1.084-2.5,7.253,7.253,0,0,1,3.605-1.356q1.524-.237,3.022-.334v-.428a2.2,2.2,0,0,0-.524-1.619,1.96,1.96,0,0,0-1.451-.524,2.007,2.007,0,0,0-1.441.488,1.922,1.922,0,0,0-.559,1.343H50.741a4.109,4.109,0,0,1,1.429-3,5.607,5.607,0,0,1,3.808-1.164Zm1.974,6.926q-1.427.095-2.426.262a3.27,3.27,0,0,0-1.5.571,1.35,1.35,0,0,0-.457,1.1,1.417,1.417,0,0,0,.463,1.106,1.908,1.908,0,0,0,1.321.416,3.172,3.172,0,0,0,1.063-.178,2.2,2.2,0,0,0,.845-.51,2.076,2.076,0,0,0,.548-.917,5.337,5.337,0,0,0,.143-1.393Zm12.5-6.736a4.034,4.034,0,0,1,1.094.143v2.88a5.969,5.969,0,0,0-1.047-.119,2.908,2.908,0,0,0-2.333.944,4.069,4.069,0,0,0-.808,2.725v5.707H64.021V149.231H67.09v1.714h.047A3.979,3.979,0,0,1,68.56,149.5a3.789,3.789,0,0,1,1.89-.46m2.662.192h3.331v12.089H73.111Zm0-4.855h3.331v2.855H73.111Zm11.066,4.474a5.549,5.549,0,0,1,3.878,1.2,4.627,4.627,0,0,1,1.31,3.579v4.379a13.331,13.331,0,0,0,.332,3.3h-3a6.985,6.985,0,0,1-.167-1.618h-.047a4.488,4.488,0,0,1-3.928,1.909,4.241,4.241,0,0,1-3-1.036,3.424,3.424,0,0,1-1.118-2.63,3.165,3.165,0,0,1,1.083-2.5,7.244,7.244,0,0,1,3.605-1.356q1.522-.237,3.022-.334v-.428a2.207,2.207,0,0,0-.524-1.619,1.963,1.963,0,0,0-1.452-.524,2,2,0,0,0-1.44.488,1.924,1.924,0,0,0-.56,1.343H78.948a4.1,4.1,0,0,1,1.427-3,5.61,5.61,0,0,1,3.8-1.164m1.971,6.926q-1.429.095-2.427.262a3.28,3.28,0,0,0-1.5.571,1.357,1.357,0,0,0-.452,1.094,1.418,1.418,0,0,0,.465,1.106,1.9,1.9,0,0,0,1.32.416,3.172,3.172,0,0,0,1.063-.178,2.191,2.191,0,0,0,.845-.51,2.064,2.064,0,0,0,.548-.917,5.387,5.387,0,0,0,.138-1.393ZM103.3,144.9a6.346,6.346,0,0,1,4.106,1.237,4.081,4.081,0,0,1,1.534,3.355,5.17,5.17,0,0,1-.5,2.372,5.372,5.372,0,0,1-1.345,1.7,15.323,15.323,0,0,1-2.2,1.5,22.329,22.329,0,0,0-2.227,1.427,4.336,4.336,0,0,0-1.036,1.025,2,2,0,0,0-.309,1h8.02v2.808H97.24a4.373,4.373,0,0,1-.023-.524,9.417,9.417,0,0,1,.378-2.856,5.9,5.9,0,0,1,1.379-2.248,12.586,12.586,0,0,1,2.856-2.126,22.444,22.444,0,0,0,2.044-1.314,4.172,4.172,0,0,0,1.118-1.18,2.731,2.731,0,0,0,.382-1.44,1.829,1.829,0,0,0-.548-1.38,2.121,2.121,0,0,0-1.523-.524q-2.38,0-2.427,2.571H97.425a5.325,5.325,0,0,1,1.619-4.014,6.135,6.135,0,0,1,4.26-1.389m14.064,0a5.6,5.6,0,0,1,4.736,2.19,12.478,12.478,0,0,1,.014,12.434,6.263,6.263,0,0,1-9.5,0,12.474,12.474,0,0,1,.012-12.434,5.6,5.6,0,0,1,4.735-2.194Zm0,2.88a2.278,2.278,0,0,0-2.106,1.44,9.259,9.259,0,0,0-.725,4.081,9.4,9.4,0,0,0,.725,4.132,2.26,2.26,0,0,0,4.212,0,9.413,9.413,0,0,0,.727-4.132,9.26,9.26,0,0,0-.727-4.081,2.28,2.28,0,0,0-2.107-1.436Zm14.016-2.88a6.348,6.348,0,0,1,4.106,1.237,4.084,4.084,0,0,1,1.534,3.355,5.188,5.188,0,0,1-.5,2.372,5.407,5.407,0,0,1-1.345,1.7,15.323,15.323,0,0,1-2.2,1.5,22.438,22.438,0,0,0-2.225,1.427,4.313,4.313,0,0,0-1.036,1.025,1.989,1.989,0,0,0-.309,1h8.02v2.808H125.317a4.374,4.374,0,0,1-.023-.524,9.42,9.42,0,0,1,.382-2.856,5.9,5.9,0,0,1,1.379-2.248,12.586,12.586,0,0,1,2.856-2.126,22.873,22.873,0,0,0,2.047-1.309,4.188,4.188,0,0,0,1.118-1.18,2.731,2.731,0,0,0,.382-1.44,1.829,1.829,0,0,0-.548-1.38,2.117,2.117,0,0,0-1.524-.524q-2.378,0-2.426,2.569h-3.451a5.324,5.324,0,0,1,1.618-4.013,6.143,6.143,0,0,1,4.258-1.394m14.04,0a6.351,6.351,0,0,1,4.109,1.242,4.082,4.082,0,0,1,1.535,3.355,5.2,5.2,0,0,1-.5,2.368,5.407,5.407,0,0,1-1.345,1.7,15.4,15.4,0,0,1-2.2,1.5,22.44,22.44,0,0,0-2.225,1.427,4.354,4.354,0,0,0-1.036,1.023,2.009,2.009,0,0,0-.309,1h8.02v2.808H139.357a4.647,4.647,0,0,1-.025-.524,9.42,9.42,0,0,1,.382-2.856,5.89,5.89,0,0,1,1.381-2.248,12.551,12.551,0,0,1,2.855-2.126,22.407,22.407,0,0,0,2.042-1.314,4.176,4.176,0,0,0,1.12-1.18,2.718,2.718,0,0,0,.381-1.44,1.82,1.82,0,0,0-.547-1.38,2.117,2.117,0,0,0-1.523-.524q-2.38,0-2.427,2.571h-3.448a5.325,5.325,0,0,1,1.619-4.014,6.135,6.135,0,0,1,4.26-1.389Z" transform="translate(0.562 34.052)" fill="#be8d3c"/>
      <path id="Path_346" data-name="Path 346" d="M117.092,68.232v8.461H81V28.881h9.871V68.232Z" transform="translate(19.107 6.813)" fill="#fff"/>
      <path id="Path_347" data-name="Path 347" d="M238.282,81.8V92.609H259.91V101H238.282v11.684h29.351v8.461H228.41V73.337h33.038V81.8Z" transform="translate(53.879 17.299)" fill="#fff"/>
      <path id="Path_348" data-name="Path 348" d="M105.915,81.8v39.351H96.038V81.8H81V73.337h44.393V81.8Z" transform="translate(19.107 17.299)" fill="#fff"/>
    </g>
  </g>
</svg>
