<svg xmlns="http://www.w3.org/2000/svg" width="106.625" height="29.322" viewBox="0 0 106.625 29.322">
  <g id="g10" transform="translate(-161.506 -241.271)">
    <g id="g12" transform="translate(161.506 241.271)">
      <path id="path14" d="M217.78,26.95l.047-.215,1.948-5.1h.861v6h-.562V22.3l-2.084,5.323h-.478l-2.089-5.329v5.329h-.556v-6h.856l2.011,5.1.047.22h0" transform="translate(-151.526 0.461)" fill="#fff" fill-rule="evenodd"/>
      <path id="path16" d="M231.733,21.64h3.04v.546h-2.488v2.1h2.4v.546h-2.4v2.252h2.488v.546h-3.04V21.64h0" transform="translate(-161.752 0.453)" fill="#fff" fill-rule="evenodd"/>
      <path id="path18" d="M240.442,27.095l1.942-5.455H243l1.916,5.455h.388v1.774h-.556V27.63h-4.126v1.239h-.546V27.095Zm2.252-4.767-1.638,4.762h3.265l-1.627-4.762h0" transform="translate(-166.812 0.453)" fill="#fff" fill-rule="evenodd"/>
      <path id="path20" d="M258.079,27.622v-5.1l-.042.11-3.082,4.993H254.4v-6h.556v5.1l.037-.11,3.082-4.993h.556v6h-.551" transform="translate(-175.494 0.461)" fill="#fff" fill-rule="evenodd"/>
      <path id="path22" d="M268.505,21.64h.619l2.383,6h-.6l-.8-2.021h-2.588l-.809,2.016h-.6Zm.31.588-.042.163-1.039,2.688h2.147l-1.029-2.688-.037-.163h0" transform="translate(-182.591 0.453)" fill="#fff" fill-rule="evenodd"/>
      <path id="path24" d="M285.386,27.622v-6h2.819v.546h-2.268v5.444h-.551v.005" transform="translate(-194.28 0.461)" fill="#fff" fill-rule="evenodd"/>
      <path id="path26" d="M293.426,21.64h1.459a2.425,2.425,0,0,1,1.491.325,1.739,1.739,0,0,1,.74,1.47,1.7,1.7,0,0,1-.635,1.391,2.124,2.124,0,0,1-1.449.394h-1.045v2.415h-.557v-6Zm1.512,3.029a1.814,1.814,0,0,0,1.123-.236,1.193,1.193,0,0,0,.483-1.008,1.154,1.154,0,0,0-.688-1.108,1.872,1.872,0,0,0-.861-.136h-.11l-.095.01h-.808v2.478h.956" transform="translate(-199.154 0.453)" fill="#fff" fill-rule="evenodd"/>
      <path id="path28" d="M304.6,25.932l-1.974-4.3h.667l1.617,3.612,1.528-3.612h.609l-2.567,6h-.62l.74-1.69h0" transform="translate(-204.731 0.461)" fill="#fff" fill-rule="evenodd"/>
      <path id="path30" d="M314.639,21.64h4v6h-.562V22.191H315.2v5.444h-.557v-6h0" transform="translate(-212.015 0.453)" fill="#fff" fill-rule="evenodd"/>
      <path id="path32" d="M172.975-8.985a7.308,7.308,0,0,1-1.013.063,2.656,2.656,0,0,1-1.27-.247,1.163,1.163,0,0,1-.551-.819c-.079-.4-.136-.908-.194-1.507s-.068-1.228-.068-1.9c0-.43.021-.908.068-1.459a11.39,11.39,0,0,1,.194-1.559,1.246,1.246,0,0,1,.609-.945,3.36,3.36,0,0,1,1.465-.247,6.663,6.663,0,0,1,.808.047,4.025,4.025,0,0,1,.73.131v8.221a4.578,4.578,0,0,1-.777.22Zm6.919-10.458h-6.142v.32a9.39,9.39,0,0,0-1.633-.367,14.72,14.72,0,0,0-1.9-.11,8.765,8.765,0,0,0-3.759.714,4.609,4.609,0,0,0-2.2,1.921,5.546,5.546,0,0,0-.5,1.554,9.95,9.95,0,0,0-.2,2,14.777,14.777,0,0,0,.089,1.669,7.488,7.488,0,0,0,.294,1.423,3.793,3.793,0,0,0,1.958,2.425,8.893,8.893,0,0,0,4.042.761,14.278,14.278,0,0,0,2.667-.22,3.358,3.358,0,0,0,1.528-.535c.021.121.047.352.058.451.016.168.01.4.01.478a1.635,1.635,0,0,1-.866,1.517,5.457,5.457,0,0,1-2.7.514c-.8,0-1.69-.047-2.656-.136a19.5,19.5,0,0,1-2.389-.357l-.74,1.727a22.227,22.227,0,0,0,3.071.478c1.123.11,2.252.173,3.355.173a15.814,15.814,0,0,0,6.3-1.029c1.554-.672,2.331-1.617,2.331-2.845l-.005-12.526h0" transform="translate(-120.413 25.448)" fill="#fff" fill-rule="evenodd"/>
      <path id="path34" d="M85.877-11.246c-.042.8-.089,1.333-.131,1.564a.84.84,0,0,1-.52.787,2.713,2.713,0,0,1-1.291.283,8.458,8.458,0,0,1-1.076-.047,2.5,2.5,0,0,1-.709-.163V-17.1c1.139-.121,1.648-.168,1.528-.152s-.11.021.011.021a2.824,2.824,0,0,1,1.381.273,1.357,1.357,0,0,1,.619.824,5.634,5.634,0,0,1,.21,1.2c.032.462.052,1.013.052,1.675C85.955-12.722,85.934-12.05,85.877-11.246Zm6.274-3.775a7.964,7.964,0,0,0-.231-1.37,3.262,3.262,0,0,0-1.759-2.063,8.067,8.067,0,0,0-3.8-.745,21,21,0,0,0-2.688.152,9.109,9.109,0,0,0-2.247.577l-.368-.577H76.106V-3.2h6.037V-7.172a5.2,5.2,0,0,0,1.239.2c.6.047,1.36.068,2.278.068a9.759,9.759,0,0,0,4.326-.824A3.267,3.267,0,0,0,91.935-9.96a14.972,14.972,0,0,0,.231-1.617c.042-.493.068-1.06.068-1.685a13.713,13.713,0,0,0-.084-1.759h0" transform="translate(-67.402 25.206)" fill="#fff" fill-rule="evenodd"/>
      <path id="path36" d="M54.01-34.44,54-15.813h6.4V-32.371H66.39V-34.44H54.01" transform="translate(-54 34.44)" fill="#fff" fill-rule="evenodd"/>
      <path id="path38" d="M284.383-6.817h-6.142v-9.644a.9.9,0,0,0-.53-.772,2.85,2.85,0,0,0-1.449-.32,8.755,8.755,0,0,0-1.045.047,11.723,11.723,0,0,0-1.171.163,1.839,1.839,0,0,1,.236.478,2.012,2.012,0,0,1,.089.562v9.487h-6.148v-9.644a.873.873,0,0,0-.514-.835,3.914,3.914,0,0,0-1.643-.257c-.336,0-.64.01-.913.037a5.507,5.507,0,0,0-.8.121V-6.817h-6.142V-19.442h5.029l.415.562a11.8,11.8,0,0,1,2.184-.525,17.492,17.492,0,0,1,2.8-.194,11.973,11.973,0,0,1,2.824.257,4.825,4.825,0,0,1,1.79.819A7.738,7.738,0,0,1,275.4-19.3a12.83,12.83,0,0,1,2.667-.3,11.712,11.712,0,0,1,4.636.745,2.4,2.4,0,0,1,1.69,2.215v9.823h-.005" transform="translate(-177.806 25.447)" fill="#fff" fill-rule="evenodd"/>
      <path id="path40" d="M224.588-15.373a10.117,10.117,0,0,0-5.423-1.123,9.4,9.4,0,0,0-1.99.184,3.957,3.957,0,0,0-1.223.415v-3.3h-9.019v1.89h2.856V-6.574H214.9v-.01l.583-.514a6.038,6.038,0,0,0,1.732.478,18.086,18.086,0,0,0,2.63.157A8.074,8.074,0,0,0,224.509-7.7a4.583,4.583,0,0,0,1.937-3.922A4.179,4.179,0,0,0,224.588-15.373Zm-4.882,6.667a2.177,2.177,0,0,1-1.664.514,6.32,6.32,0,0,1-1.27-.121,3.608,3.608,0,0,1-.819-.247V-14.05a1.109,1.109,0,0,1,.593-.394,3.526,3.526,0,0,1,1.228-.173,2.254,2.254,0,0,1,1.832.651,4.571,4.571,0,0,1,.562,2.572,5.268,5.268,0,0,1-.462,2.688h0" transform="translate(-146.717 25.205)" fill="#fff" fill-rule="evenodd"/>
      <path id="path42" d="M128.5-8.373a6.463,6.463,0,0,1-1.281.121,2.157,2.157,0,0,1-1.664-.525,3.889,3.889,0,0,1-.462-2.331,3.346,3.346,0,0,1,.562-2.215,2.313,2.313,0,0,1,1.832-.651,3.815,3.815,0,0,1,1.228.173,1.267,1.267,0,0,1,.677.488v4.657A3.488,3.488,0,0,1,128.5-8.373Zm6.909-7.45a2.907,2.907,0,0,0-1.9-2.635,11.778,11.778,0,0,0-5.208-.955c-1.249,0-2.452.047-3.591.147a21.812,21.812,0,0,0-3.181.5v1.932a14.853,14.853,0,0,1,2.4-.541,18.716,18.716,0,0,1,2.646-.157,4.532,4.532,0,0,1,2.089.394,1.185,1.185,0,0,1,.719,1.039v.882a4.041,4.041,0,0,0-1.307-.467,9.694,9.694,0,0,0-1.979-.184,10.166,10.166,0,0,0-5.434,1.139,3.931,3.931,0,0,0-1.732,3.533,3.976,3.976,0,0,0,1.8,3.433A8.126,8.126,0,0,0,125.4-6.52a20.716,20.716,0,0,0,2.635-.157,5.576,5.576,0,0,0,1.732-.493l.6.541h5.04v-9.193h0" transform="translate(-93.366 25.334)" fill="#fff" fill-rule="evenodd"/>
    </g>
  </g>
</svg>
