<svg xmlns="http://www.w3.org/2000/svg" width="80" height="11.938" viewBox="0 0 80 11.938">
  <g id="g10" transform="translate(8 80.795)">
    <g id="g12" transform="translate(-8 -80.795)">
      <path id="path14" d="M289.514-68.857h.154V-80.795h-.154v11.938" transform="translate(-246.736 80.795)" fill="#231f20"/>
      <path id="path16" d="M397.661-51.538c-.87,0-1.339-.908-1.339-1.762,0-.816.423-1.693,1.351-1.693.881,0,1.277,1.015,1.277,1.736,0,.828-.4,1.718-1.288,1.718Zm.075-3.953a2.258,2.258,0,0,0-2.428,2.229,2.164,2.164,0,0,0,2.221,2.2,2.226,2.226,0,0,0,2.421-2.274,2.164,2.164,0,0,0-2.214-2.16" transform="translate(-336.898 59.23)" fill="#676565"/>
      <path id="path18" d="M480.485-51.85c-.87,0-1.339-.908-1.339-1.762,0-.814.422-1.692,1.351-1.692.88,0,1.276,1.016,1.276,1.737C481.773-52.74,481.369-51.85,480.485-51.85Zm.082-3.953a2.258,2.258,0,0,0-2.428,2.229,2.164,2.164,0,0,0,2.221,2.2,2.224,2.224,0,0,0,2.42-2.273,2.164,2.164,0,0,0-2.213-2.16" transform="translate(-407.489 59.495)" fill="#676565"/>
      <path id="path20" d="M513.79-50.767h-.449l-.026-.036c-.213-.284-.445-.567-.693-.843l-2-2.28.027,2.077,0,.061a1.669,1.669,0,0,0,.051.427c.033.1.109.117.249.137.031,0,.062.009.093.015l.072.014v.389l-.1-.005c-.241-.013-.469-.025-.7-.025-.206,0-.412.012-.642.025l-.095.006v-.406h.089c.292,0,.39-.1.39-.392,0-.067,0-.132,0-.2s0-.126,0-.191v-1.98c0-.035,0-.07,0-.108s0-.073,0-.11c0-.377-.077-.423-.409-.45l-.081-.006v-.412l.1.013a4.393,4.393,0,0,0,.58.03,4.309,4.309,0,0,0,.567-.03l.05-.007.031.038c.18.216.363.424.546.631l.195.223,1.611,1.833v-1.75c0-.4-.063-.548-.418-.563l-.086,0v-.413l.1.011a5.925,5.925,0,0,0,.656.03c.209,0,.431-.01.679-.031l.1-.008v.414h-.133a.355.355,0,0,0-.228.052c-.1.1-.1.293-.1.454v.312l-.03,1.949v1.1h0" transform="translate(-434.28 58.859)" fill="#676565"/>
      <path id="path22" d="M429.108-54.369v1.461c.57-.024.86-.291.86-.792,0-.46-.243-.674-.767-.674A.721.721,0,0,0,429.108-54.369Zm.466,3.754-.1-.007c-.3-.022-.552-.031-.805-.031-.215,0-.44.011-.657.021l-.22.01-.092,0v-.41h.088c.36,0,.377-.115.377-.514v-2.4c0-.414-.037-.518-.377-.518H427.7v-.406l.094.007c.252.017.526.025.838.025.164,0,.33-.008.49-.016s.326-.016.49-.016c.824,0,1.316.388,1.316,1.037a1.155,1.155,0,0,1-.757,1.152l.553.821c.034.051.071.111.11.175.182.294.488.694.777.694h.089v.361h-.654c-.557,0-.68-.2-.95-.622l-.759-1.208h-.232v.911c0,.382.018.514.377.514h.089v.412h0" transform="translate(-364.507 58.694)" fill="#676565"/>
      <path id="path24" d="M372.084-50.615v-.407h.089c.314,0,.389-.082.389-.417v-2.5c0-.4-.038-.506-.389-.506h-.089v-.413l.1.007c.315.021.6.032.861.032h.733c.327,0,.716,0,1.11-.027l.1-.007.09-.007.005.089a9.383,9.383,0,0,0,.119,1.034l.015.085-.086.015-.253.044-.087.015-.016-.085c-.129-.7-.252-.715-.969-.715-.219,0-.264.028-.273.036a.342.342,0,0,0-.028.164v1.255h.464c.42,0,.559-.056.559-.387V-53.4h.428l-.006.107c-.012.209-.024.425-.024.635,0,.192.011.376.023.572l0,.035.006.092h-.426l0-.084c-.017-.384-.1-.416-.527-.416h-.5v.916c0,.4.017.519.395.519h.089v.406l-.095-.006c-.323-.021-.613-.031-.887-.031s-.529.01-.823.031l-.1.007h0" transform="translate(-317.105 58.694)" fill="#676565"/>
      <path id="path26" d="M456.1-51.089l-.1-.008c-.3-.026-.6-.03-.86-.03-.293,0-.6.01-.936.03l-.094.006v-.4h.089c.4,0,.417-.134.417-.52V-54.9h-.3c-.3,0-.512,0-.514.631v.087h-.427v-1.227h.088a7.117,7.117,0,0,0,1.63.117,9.739,9.739,0,0,0,1.634-.086h.09v.089c-.005.295,0,.512,0,.783v.328H456.4l0-.089V-54.3a.568.568,0,0,0-.2-.547.914.914,0,0,0-.369-.056l-.27,0v2.927c0,.361.036.479.448.479h.088v.407h0" transform="translate(-386.394 59.16)" fill="#676565"/>
      <path id="path28" d="M313.217-69.395a4.135,4.135,0,0,0-3.991,4.258,4.136,4.136,0,0,0,4.012,4.239,4.135,4.135,0,0,0,3.992-4.258,4.136,4.136,0,0,0-4.012-4.239" transform="translate(-263.535 71.079)" fill="#eb1a2c"/>
      <path id="path30" d="M315.615-67.733a3.817,3.817,0,0,0-3.588,4,3.818,3.818,0,0,0,3.588,4,3.818,3.818,0,0,0,3.587-4,3.817,3.817,0,0,0-3.587-4" transform="translate(-265.922 69.663)" fill="#eb1a2c"/>
      <path id="path32" d="M315.615-67.733a3.817,3.817,0,0,0-3.588,4,3.818,3.818,0,0,0,3.588,4,3.818,3.818,0,0,0,3.587-4A3.817,3.817,0,0,0,315.615-67.733Z" transform="translate(-265.922 69.663)" fill="none" stroke="#fff" stroke-width="1.213"/>
      <path id="path34" d="M325.267-56.462h.03c.236,0,.374.05.445.162a1.016,1.016,0,0,1,.085.53v3.047c0,.454-.119.585-.53.585h-.03v.337l.032,0c.369-.025.678-.038.971-.038.309,0,.641.012,1.044.038l.032,0v-.337h-.03c-.516,0-.536-.216-.536-.707v-1.192h.655c.533,0,.671.068.692.579v.028h.349l0-.047-.027-.727.03-.829h-.349V-55c0,.509-.289.547-.728.547h-.618v-1.6a.47.47,0,0,1,.046-.24c.048-.079.3-.079.381-.079.841,0,1.046.034,1.207.933l.005.029.354-.064,0-.029a12.2,12.2,0,0,1-.139-1.266l0-.031-.149.01h0c-.583.037-1.168.034-1.733.032h-.431c-.3,0-.647-.013-1.015-.038l-.032,0v.345h0" transform="translate(-277.206 60.352)" fill="#fff"/>
      <path id="path36" d="M40.049-68.843v8.432h2.48v-6.558l-2.48-1.874" transform="translate(-34.131 70.609)" fill="#eb1a2c"/>
      <path id="path38" d="M33.374-66.008v7.687h.507v-8.07l-.507.383" transform="translate(-28.443 68.519)" fill="#eb1a2c"/>
      <path id="path40" d="M26.7-54.021h.507v-7.324l-.507.383v6.941" transform="translate(-22.754 64.219)" fill="#eb1a2c"/>
      <path id="path42" d="M20.025-49.721h.507V-56.3l-.507.383v6.2" transform="translate(-17.066 59.919)" fill="#eb1a2c"/>
      <path id="path44" d="M60.074-43.26v4.652h2.479v-2.778L60.074-43.26" transform="translate(-51.197 48.806)" fill="#eb1a2c"/>
      <path id="path46" d="M13.349-40.493v3.916h.507v-4.3l-.507.383" transform="translate(-11.377 46.775)" fill="#eb1a2c"/>
      <path id="path48" d="M6.674-32.276h.507V-35.83l-.507.383v3.171" transform="translate(-5.688 42.474)" fill="#eb1a2c"/>
      <path id="path50" d="M0-27.976H.507v-2.809L0-30.4v2.425" transform="translate(0 38.174)" fill="#eb1a2c"/>
      <path id="path52" d="M113.269-53.346a1.1,1.1,0,0,1-1.2-1.234v-1.587h.611V-54.6c0,.452.226.686.6.686s.6-.226.6-.667v-1.591h.611V-54.6a1.118,1.118,0,0,1-1.218,1.254" transform="translate(-95.508 59.806)" fill="#676565"/>
      <path id="path54" d="M134.1-53.643a1.767,1.767,0,0,1-1.178-.445l.361-.432a1.275,1.275,0,0,0,.829.337c.25,0,.4-.1.4-.262v-.008c0-.155-.1-.234-.56-.353-.56-.143-.921-.309-.921-.861v-.008a.869.869,0,0,1,.972-.837,1.607,1.607,0,0,1,1.032.353l-.317.46a1.3,1.3,0,0,0-.722-.274c-.234,0-.357.107-.357.242v.008c0,.183.119.253.6.377.563.147.881.349.881.833v.008c0,.552-.421.861-1.02.861" transform="translate(-113.282 60.1)" fill="#676565"/>
      <path id="path56" d="M155.144-53.389V-54.5h-1.127v1.115h-.611v-2.778h.611v1.1h1.127v-1.1h.611v2.778h-.611" transform="translate(-130.739 59.806)" fill="#676565"/>
      <path id="path58" d="M225.887-53.389l-1.308-1.737v1.737h-.6v-2.778h.563l1.3,1.767v-1.767h.6v2.778h-.557" transform="translate(-190.881 59.806)" fill="#676565"/>
      <path id="path60" d="M145.688-27.8l-.861-1.183-.321.333v.849h-.611v-2.778h.611v1.214l1.127-1.214h.738L145.24-29.4l1.182,1.6h-.734" transform="translate(-122.633 37.996)" fill="#676565"/>
      <path id="path62" d="M165.645-27.8v-2.778h2.077v.544h-1.469v.564h1.291v.544h-1.291v.583h1.489v.544h-2.1" transform="translate(-141.169 37.996)" fill="#676565"/>
      <path id="path64" d="M205.611-27.8v-2.778h.611V-27.8h-.611" transform="translate(-175.23 37.996)" fill="#676565"/>
      <path id="path66" d="M215.843-27.826V-30.6h2.077v.544h-1.47v.564h1.291v.544h-1.291v.583h1.489v.544h-2.1" transform="translate(-183.951 38.02)" fill="#676565"/>
      <path id="path68" d="M236.21-27.8v-2.778h.611v2.222h1.385v.556h-2" transform="translate(-201.308 37.996)" fill="#676565"/>
      <path id="path70" d="M256.611-29.187a.8.8,0,0,0-.837-.837H255.3v1.675h.472a.792.792,0,0,0,.837-.829Zm-.837,1.389H254.69v-2.778h1.083a1.385,1.385,0,0,1,1.476,1.381v.008a1.391,1.391,0,0,1-1.476,1.389" transform="translate(-217.057 37.996)" fill="#676565"/>
      <path id="path72" d="M91.165-54.2a.834.834,0,0,1-.856-.858v-.008a.831.831,0,0,1,.818-.879.871.871,0,0,1,.683.307L92.2-56.1a1.48,1.48,0,0,0-1.072-.408A1.436,1.436,0,0,0,89.67-55.05v.008a1.423,1.423,0,0,0,1.5,1.4,1.475,1.475,0,0,0,1.091-.507l-.412-.4a.86.86,0,0,1-.681.345" transform="translate(-76.42 60.1)" fill="#676565"/>
      <path id="path74" d="M178.2-56.167h.654v2.778h-.582v-1.816l-.788,1.189h-.018l-.788-1.189v1.816H176.1v-2.778h.654L177.476-55l.724-1.165" transform="translate(-150.077 59.806)" fill="#676565"/>
      <path id="path76" d="M200.5-54.552l.369-.9.369.9Zm.087-1.615L199.4-53.389h.623l.254-.623h1.175l.254.623h.639l-1.182-2.778h-.58" transform="translate(-169.941 59.806)" fill="#676565"/>
      <path id="path78" d="M120.42-28.96l.369-.9.369.9Zm.087-1.615L119.325-27.8h.623l.254-.623h1.175l.254.623h.639l-1.182-2.778h-.58" transform="translate(-101.693 37.996)" fill="#676565"/>
      <path id="path80" d="M186.261-30.02v.591h1.307v.555h-1.307V-27.8h-.611v-2.778h2.116v.556h-1.505" transform="translate(-158.219 37.996)" fill="#676565"/>
      <path id="path82" d="M92.871-30.575l-.644,1.935-.644-1.935h-.59l-.644,1.935-.644-1.935h-.654l1,2.778h.607l.628-1.907.628,1.907h.607l1-2.778h-.654" transform="translate(-75.894 37.996)" fill="#676565"/>
      <path id="path84" d="M254.314-55.551a.521.521,0,0,1-.177-.258.19.19,0,0,1,.181-.223.193.193,0,0,1,.216.2C254.533-55.7,254.4-55.6,254.314-55.551Zm.343,1.155a.587.587,0,0,1-.431.259.388.388,0,0,1-.382-.366c0-.123.09-.307.366-.433Zm.686.024.321-.358-.386-.412-.284.335-.346-.411a.725.725,0,0,0,.364-.638.692.692,0,0,0-.719-.66.675.675,0,0,0-.492.2.669.669,0,0,0-.185.493.876.876,0,0,0,.251.507.9.9,0,0,0-.557.815.912.912,0,0,0,.915.861,1.092,1.092,0,0,0,.761-.354l.248.3h.716l-.607-.686" transform="translate(-215.881 60.103)" fill="#676565"/>
    </g>
  </g>
</svg>
